<svg width="227" height="30" viewBox="0 0 227 30" fill="none" xmlns="http://www.w3.org/2000/svg">
<circle cx="211.666" cy="14.5039" r="14" stroke="#D90000"/>
<circle opacity="0.5" cx="11.494" cy="14.2601" r="11.3265" fill="#202020"/>
<path d="M11.6584 9.57181L8.74245 10.7238L9.23445 12.0318L11.0464 11.3718V18.0078H12.6424V9.57181H11.6584Z" fill="white"/>
<circle opacity="0.5" cx="61.493" cy="14.2601" r="11.3265" fill="#202020"/>
<path d="M58.8265 18.0078H64.5025V16.5918H61.6465C61.9945 16.3278 62.3305 15.9918 62.7025 15.5958C63.7825 14.4798 64.2985 13.4358 64.2985 12.2838C64.2985 10.5318 63.0625 9.46381 61.0945 9.46381C59.9785 9.46381 59.0665 9.79981 58.6225 10.0758L59.1505 11.3598C59.4985 11.1318 60.0865 10.9158 60.8905 10.9158C61.9705 10.9158 62.6425 11.5518 62.6665 12.4878C62.6785 13.1718 62.4145 13.8798 61.5505 14.8158C60.5545 15.9078 59.3545 16.7478 58.8265 17.0958V18.0078Z" fill="white"/>
<circle opacity="0.5" cx="111.611" cy="14.2679" r="11.3265" fill="#202020"/>
<path d="M111.986 12.8037L114.098 10.6077V9.57572H108.758V10.9677H112.058L109.67 13.3797L110.006 14.2197C110.402 14.0637 110.81 13.9797 111.218 13.9797C112.262 13.9797 112.85 14.4717 112.85 15.3477C112.85 16.2237 112.214 16.7757 111.086 16.7757C110.09 16.7757 109.502 16.3797 109.178 16.1637L108.578 17.3757C109.058 17.7237 109.946 18.1197 111.17 18.1197C113.234 18.1197 114.47 17.0277 114.47 15.3357C114.47 13.7637 113.486 12.8637 111.986 12.8037Z" fill="white"/>
<circle opacity="0.5" cx="161.669" cy="14.2601" r="10.8265" fill="#202020" stroke="#202020"/>
<path d="M164.39 14.8278H163.538V11.8878H161.966V14.8278H159.614L161.318 9.96781L159.95 9.48781L157.862 15.2118V16.2318H161.966V18.0078H163.538V16.2318H164.39V14.8278Z" fill="white"/>
<circle cx="211.727" cy="14.2601" r="11.3265" fill="#D90000"/>
<path d="M211.818 12.6078C211.506 12.6078 211.182 12.6438 210.858 12.7038V10.9518H214.11V9.57181H209.262V13.7718L209.958 14.2038C210.33 14.0238 210.81 13.9038 211.35 13.9038C212.262 13.9038 213.078 14.3358 213.09 15.2838C213.09 16.2318 212.442 16.7838 211.326 16.7838C210.33 16.7838 209.526 16.3158 209.298 16.1958L208.746 17.4558C208.938 17.5638 209.982 18.1158 211.434 18.1158C213.51 18.1158 214.638 16.9278 214.638 15.2598C214.638 13.5198 213.462 12.6078 211.818 12.6078Z" fill="white"/>
</svg>
