<svg width="223" height="30" viewBox="0 0 223 30" fill="none" xmlns="http://www.w3.org/2000/svg">
<circle cx="111.575" cy="14.5322" r="13.9934" stroke="#D90000" stroke-width="0.999528"/>
<circle opacity="0.5" cx="11.4477" cy="14.2899" r="11.3211" fill="#202020"/>
<path d="M11.6151 9.61095L8.7005 10.7624L9.19227 12.0698L11.0034 11.4101V18.043H12.5987V9.61095H11.6151Z" fill="white"/>
<circle opacity="0.5" cx="61.4243" cy="14.2899" r="11.3211" fill="#202020"/>
<path d="M58.7608 18.043H64.4341V16.6276H61.5794C61.9273 16.3638 62.2631 16.0279 62.6349 15.6321C63.7144 14.5166 64.2302 13.4731 64.2302 12.3217C64.2302 10.5705 62.9948 9.503 61.0277 9.503C59.9122 9.503 59.0007 9.83884 58.5569 10.1147L59.0846 11.3981C59.4325 11.1702 60.0202 10.9543 60.8238 10.9543C61.9033 10.9543 62.575 11.59 62.599 12.5256C62.611 13.2093 62.3471 13.9169 61.4835 14.8525C60.488 15.944 59.2885 16.7836 58.7608 17.1314V18.043Z" fill="white"/>
<circle cx="111.52" cy="14.2899" r="11.3211" fill="#D90000"/>
<path d="M111.897 12.8335L114.008 10.6386V9.60704H108.671V10.9984H111.969L109.582 13.4092L109.918 14.2489C110.314 14.0929 110.722 14.009 111.129 14.009C112.173 14.009 112.761 14.5007 112.761 15.3763C112.761 16.2519 112.125 16.8036 110.998 16.8036C110.002 16.8036 109.414 16.4078 109.09 16.1919L108.491 17.4034C108.97 17.7512 109.858 18.147 111.081 18.147C113.144 18.147 114.38 17.0555 114.38 15.3643C114.38 13.7931 113.396 12.8935 111.897 12.8335Z" fill="white"/>
<circle cx="161.554" cy="14.2899" r="10.8214" stroke="#202020" stroke-width="0.999528"/>
<path d="M164.275 14.8645H163.423V11.9259H161.852V14.8645H159.501L161.204 10.0068L159.837 9.52699L157.75 15.2483V16.2678H161.852V18.043H163.423V16.2678H164.275V14.8645Z" fill="#404040"/>
<circle cx="211.591" cy="14.2899" r="10.8214" stroke="#202020" stroke-width="0.999528"/>
<path d="M211.682 12.6455C211.37 12.6455 211.046 12.6815 210.722 12.7415V10.9903H213.973V9.61095H209.127V13.809L209.823 14.2408C210.195 14.0608 210.674 13.9409 211.214 13.9409C212.126 13.9409 212.941 14.3727 212.953 15.3203C212.953 16.2678 212.306 16.8195 211.19 16.8195C210.195 16.8195 209.391 16.3518 209.163 16.2318L208.611 17.4912C208.803 17.5992 209.847 18.1509 211.298 18.1509C213.373 18.1509 214.5 16.9635 214.5 15.2963C214.5 13.5571 213.325 12.6455 211.682 12.6455Z" fill="#404040"/>
</svg>
