<svg width="227" height="29" viewBox="0 0 227 29" fill="none" xmlns="http://www.w3.org/2000/svg">
<circle cx="15.0841" cy="14.5" r="14" stroke="#D90000"/>
<circle cx="14.9118" cy="14.2562" r="11.3265" fill="#D90000"/>
<path d="M15.0762 9.564L12.1602 10.716L12.6522 12.024L14.4642 11.364V18H16.0602V9.564H15.0762Z" fill="white"/>
<circle cx="64.9107" cy="14.2562" r="10.8265" stroke="#202020"/>
<path d="M62.2437 18H67.9197V16.584H65.0637C65.4117 16.32 65.7477 15.984 66.1197 15.588C67.1997 14.472 67.7157 13.428 67.7157 12.276C67.7157 10.524 66.4797 9.456 64.5117 9.456C63.3957 9.456 62.4837 9.792 62.0397 10.068L62.5677 11.352C62.9157 11.124 63.5037 10.908 64.3077 10.908C65.3877 10.908 66.0597 11.544 66.0837 12.48C66.0957 13.164 65.8317 13.872 64.9677 14.808C63.9717 15.9 62.7717 16.74 62.2437 17.088V18Z" fill="#404040"/>
<circle cx="115.028" cy="14.2562" r="10.8265" stroke="#202020"/>
<path d="M115.403 12.7959L117.515 10.5999V9.56791H112.175V10.9599H115.475L113.087 13.3719L113.423 14.2119C113.819 14.0559 114.227 13.9719 114.635 13.9719C115.679 13.9719 116.267 14.4639 116.267 15.3399C116.267 16.2159 115.631 16.7679 114.503 16.7679C113.507 16.7679 112.919 16.3719 112.595 16.1559L111.995 17.3679C112.475 17.7159 113.363 18.1119 114.587 18.1119C116.651 18.1119 117.887 17.0199 117.887 15.3279C117.887 13.7559 116.903 12.8559 115.403 12.7959Z" fill="#404040"/>
<circle cx="165.087" cy="14.2562" r="10.8265" stroke="#202020"/>
<path d="M167.807 14.82H166.955V11.88H165.383V14.82H163.031L164.735 9.96L163.367 9.48L161.279 15.204V16.224H165.383V18H166.955V16.224H167.807V14.82Z" fill="#404040"/>
<circle cx="215.146" cy="14.2562" r="10.8265" stroke="#202020"/>
<path d="M215.237 12.6C214.925 12.6 214.601 12.636 214.277 12.696V10.944H217.529V9.564H212.681V13.764L213.377 14.196C213.749 14.016 214.229 13.896 214.769 13.896C215.681 13.896 216.497 14.328 216.509 15.276C216.509 16.224 215.861 16.776 214.745 16.776C213.749 16.776 212.945 16.308 212.717 16.188L212.165 17.448C212.357 17.556 213.401 18.108 214.853 18.108C216.929 18.108 218.057 16.92 218.057 15.252C218.057 13.512 216.881 12.6 215.237 12.6Z" fill="#404040"/>
</svg>
