<svg width="224" height="30" viewBox="0 0 224 30" fill="none" xmlns="http://www.w3.org/2000/svg">
<circle cx="161.667" cy="15.4961" r="14" stroke="#D90000"/>
<circle opacity="0.5" cx="11.4932" cy="15.2444" r="11.3265" fill="#202020"/>
<path d="M11.6589 10.5523L8.74294 11.7043L9.23494 13.0123L11.0469 12.3523V18.9883H12.6429V10.5523H11.6589Z" fill="white"/>
<circle opacity="0.5" cx="61.4937" cy="15.2444" r="11.3265" fill="#202020"/>
<path d="M58.8267 18.9883H64.5027V17.5723H61.6467C61.9947 17.3083 62.3307 16.9723 62.7027 16.5763C63.7827 15.4603 64.2987 14.4163 64.2987 13.2643C64.2987 11.5123 63.0627 10.4443 61.0947 10.4443C59.9787 10.4443 59.0667 10.7803 58.6227 11.0563L59.1507 12.3403C59.4987 12.1123 60.0867 11.8963 60.8907 11.8963C61.9707 11.8963 62.6427 12.5323 62.6667 13.4683C62.6787 14.1523 62.4147 14.8603 61.5507 15.7963C60.5547 16.8883 59.3547 17.7283 58.8267 18.0763V18.9883Z" fill="white"/>
<circle opacity="0.5" cx="111.612" cy="15.2523" r="11.3265" fill="#202020"/>
<path d="M111.987 13.7842L114.099 11.5882V10.5562H108.759V11.9482H112.059L109.671 14.3602L110.007 15.2002C110.403 15.0442 110.811 14.9602 111.219 14.9602C112.263 14.9602 112.851 15.4522 112.851 16.3282C112.851 17.2042 112.215 17.7562 111.087 17.7562C110.091 17.7562 109.503 17.3602 109.179 17.1442L108.579 18.3562C109.059 18.7042 109.947 19.1002 111.171 19.1002C113.235 19.1002 114.471 18.0082 114.471 16.3162C114.471 14.7442 113.487 13.8442 111.987 13.7842Z" fill="white"/>
<circle cx="161.67" cy="15.2444" r="11.3265" fill="#D90000"/>
<path d="M164.39 15.8083H163.538V12.8683H161.966V15.8083H159.614L161.318 10.9483L159.95 10.4683L157.862 16.1923V17.2123H161.966V18.9883H163.538V17.2123H164.39V15.8083Z" fill="white"/>
<circle cx="211.73" cy="15.2444" r="10.8265" stroke="#202020"/>
<path d="M211.82 13.5883C211.508 13.5883 211.184 13.6243 210.86 13.6843V11.9323H214.112V10.5523H209.264V14.7523L209.96 15.1843C210.332 15.0043 210.812 14.8843 211.352 14.8843C212.264 14.8843 213.08 15.3163 213.092 16.2643C213.092 17.2123 212.444 17.7643 211.328 17.7643C210.332 17.7643 209.528 17.2963 209.3 17.1763L208.748 18.4363C208.94 18.5443 209.984 19.0963 211.436 19.0963C213.512 19.0963 214.64 17.9083 214.64 16.2403C214.64 14.5003 213.464 13.5883 211.82 13.5883Z" fill="#404040"/>
</svg>
