<svg width="224" height="30" viewBox="0 0 224 30" fill="none" xmlns="http://www.w3.org/2000/svg">
<circle cx="62.331" cy="14.5922" r="13.9834" stroke="#D90000" stroke-width="0.998815"/>
<circle opacity="0.5" cx="12.2172" cy="14.3482" r="11.3131" fill="white"/>
<path d="M12.3864 9.67946L9.47383 10.8301L9.96525 12.1365L11.7751 11.4773V18.1055H13.3692V9.67946H12.3864Z" fill="white"/>
<circle cx="62.1567" cy="14.3482" r="11.3131" fill="#D90000"/>
<path d="M59.4973 18.1055H65.1666V16.6911H62.314C62.6615 16.4275 62.9971 16.0919 63.3687 15.6963C64.4474 14.5816 64.9628 13.5389 64.9628 12.3883C64.9628 10.6383 63.7283 9.57159 61.7626 9.57159C60.6479 9.57159 59.737 9.90719 59.2935 10.1829L59.8209 11.4653C60.1685 11.2376 60.7558 11.0219 61.5589 11.0219C62.6376 11.0219 63.3088 11.6571 63.3327 12.592C63.3447 13.2752 63.081 13.9824 62.2181 14.9173C61.2232 16.008 60.0247 16.847 59.4973 17.1945V18.1055Z" fill="white"/>
<circle cx="112.216" cy="14.3482" r="10.8136" stroke="white" stroke-width="0.998815"/>
<path d="M112.595 12.8997L114.705 10.7063V9.67556H109.371V11.0659H112.667L110.282 13.4751L110.618 14.3141C111.013 14.1582 111.421 14.0743 111.828 14.0743C112.871 14.0743 113.458 14.5658 113.458 15.4407C113.458 16.3157 112.823 16.867 111.696 16.867C110.702 16.867 110.114 16.4715 109.791 16.2558L109.191 17.4663C109.671 17.8139 110.558 18.2094 111.78 18.2094C113.842 18.2094 115.076 17.1187 115.076 15.4287C115.076 13.8586 114.094 12.9597 112.595 12.8997Z" fill="white"/>
<circle cx="162.216" cy="14.3482" r="10.8136" stroke="white" stroke-width="0.998815"/>
<path d="M164.938 14.9292H164.087V11.9927H162.517V14.9292H160.167L161.869 10.075L160.503 9.59556L158.418 15.3128V16.3316H162.517V18.1055H164.087V16.3316H164.938V14.9292Z" fill="white"/>
<circle cx="212.216" cy="14.3482" r="10.8136" stroke="white" stroke-width="0.998815"/>
<path d="M212.31 12.7119C211.998 12.7119 211.675 12.7478 211.351 12.8078V11.0578H214.599V9.67946H209.757V13.8745L210.452 14.306C210.824 14.1262 211.303 14.0063 211.842 14.0063C212.753 14.0063 213.568 14.4378 213.58 15.3847C213.58 16.3316 212.933 16.8829 211.818 16.8829C210.824 16.8829 210.021 16.4155 209.793 16.2956L209.242 17.5541C209.433 17.662 210.476 18.2133 211.926 18.2133C214 18.2133 215.127 17.0267 215.127 15.3607C215.127 13.6228 213.952 12.7119 212.31 12.7119Z" fill="white"/>
</svg>
