<svg width="128" height="79" viewBox="0 0 128 79" fill="none" xmlns="http://www.w3.org/2000/svg">
<path d="M3.708 75H5.268V67.44H8.436V66.6H0.54V67.44H3.708V75ZM12.1403 68.748L13.5203 71.88H10.8083L12.1403 68.748ZM14.8883 75H16.5323L12.8243 66.552H12.1763L8.49225 75H9.47625L10.4723 72.66H13.8563L14.8883 75ZM21.3814 71.748C23.3254 71.748 24.6814 70.896 24.6814 69.18C24.6814 67.452 23.3374 66.6 21.3814 66.6H18.1174V75H19.6774V71.748H21.3814ZM19.6774 70.92V67.416H20.9374C22.3894 67.416 23.0494 67.944 23.0494 69.18C23.0494 70.392 22.3894 70.92 20.9374 70.92H19.6774ZM32.5124 75C35.1644 75 37.1204 73.536 37.1204 70.764C37.1204 68.124 35.2364 66.6 32.3564 66.6H29.5844V75H32.5124ZM35.4404 70.764C35.4404 73.104 34.2764 74.196 32.3324 74.196H31.1444V67.404H32.2364C34.2764 67.404 35.4404 68.64 35.4404 70.764ZM40.3525 67.416H41.8885C43.1125 67.416 43.8565 67.896 43.8565 68.94C43.8565 70.104 43.0525 70.536 41.8885 70.536H40.3525V67.416ZM40.3525 71.352H41.6965C42.6685 71.352 43.0045 71.652 43.2925 72.48L43.7845 73.824C43.9045 74.16 44.0845 74.616 44.3365 75H46.0885C45.7285 74.544 45.5365 74.172 45.3565 73.68L44.9245 72.492C44.6005 71.556 44.0605 71.088 43.0045 70.992V70.956C44.2525 70.932 45.5245 70.332 45.5245 68.868C45.5245 67.212 44.0845 66.6 42.3565 66.6H38.7925V75H40.3525V71.352ZM47.0234 70.8C47.0234 73.26 48.8834 75.12 51.3074 75.12C53.7194 75.12 55.5914 73.26 55.5914 70.8C55.5914 68.34 53.7194 66.48 51.3074 66.48C48.8834 66.48 47.0234 68.34 47.0234 70.8ZM48.7754 70.8C48.7754 68.58 49.6634 67.248 51.3074 67.248C52.9394 67.248 53.8394 68.58 53.8394 70.8C53.8394 73.008 52.9394 74.34 51.3074 74.34C49.6634 74.34 48.7754 73.008 48.7754 70.8ZM60.5197 71.748C62.4637 71.748 63.8197 70.896 63.8197 69.18C63.8197 67.452 62.4757 66.6 60.5197 66.6H57.2557V75H58.8157V71.748H60.5197ZM58.8157 70.92V67.416H60.0757C61.5277 67.416 62.1877 67.944 62.1877 69.18C62.1877 70.392 61.5277 70.92 60.0757 70.92H58.8157ZM71.1827 75H72.7427V67.44H75.9107V66.6H68.0147V67.44H71.1827V75ZM76.3676 70.8C76.3676 73.26 78.2276 75.12 80.6516 75.12C83.0636 75.12 84.9356 73.26 84.9356 70.8C84.9356 68.34 83.0636 66.48 80.6516 66.48C78.2276 66.48 76.3676 68.34 76.3676 70.8ZM78.1196 70.8C78.1196 68.58 79.0076 67.248 80.6516 67.248C82.2836 67.248 83.1836 68.58 83.1836 70.8C83.1836 73.008 82.2836 74.34 80.6516 74.34C79.0076 74.34 78.1196 73.008 78.1196 70.8ZM93.4629 75C95.2509 75 96.6429 74.34 96.6429 72.732C96.6429 71.316 95.4189 70.728 94.1349 70.68V70.656C95.2989 70.572 96.2949 69.876 96.2949 68.688C96.2949 67.188 94.9149 66.6 93.2349 66.6H90.0189V75H93.4629ZM91.5789 67.416H92.9109C94.0509 67.416 94.7109 67.824 94.7109 68.832C94.7109 69.912 93.9789 70.272 92.8989 70.272H91.5789V67.416ZM92.9949 71.1C94.2909 71.1 95.0589 71.544 95.0589 72.648C95.0589 73.764 94.3029 74.172 93.0909 74.172H91.5789V71.1H92.9949ZM98.395 75H104.575V74.136H99.955V71.088H103.207V70.236H99.955V67.452H104.383V66.6H98.395V75ZM113.468 75V71.028H111.884V72.54C111.884 73.548 110.996 74.22 109.976 74.22C108.392 74.22 107.288 72.9 107.288 70.776C107.288 68.604 108.488 67.368 110.156 67.368C111.488 67.368 112.208 68.064 112.736 69.012L113.396 68.316C112.7 67.104 111.536 66.48 109.988 66.48C107.516 66.48 105.524 68.28 105.524 70.884C105.524 73.452 107.324 75.12 109.736 75.12C110.864 75.12 111.848 74.58 112.316 73.812L112.88 75H113.468ZM117.141 66.6H115.581V75H117.141V66.6ZM125.6 72.216L121.016 66.6H119.516V75H120.524V68.364L125.996 75.024H126.608V66.6H125.6V72.216Z" fill="#404040"/>
<g clip-path="url(#clip0_2675_12967)">
<path d="M68 16.3043C68 20.5761 64.6208 24 60.5 24C56.3792 24 53 20.5761 53 16.3043C53 15.125 53.3824 13.56 54.0397 11.8168C54.6898 10.0925 55.5786 8.27174 56.5223 6.60733C57.4667 4.94143 58.4517 3.45758 59.2844 2.40295C59.7031 1.87262 60.0642 1.47517 60.3469 1.22031C60.409 1.16427 60.4631 1.11904 60.5092 1.083C60.555 1.11719 60.6086 1.16004 60.6702 1.21306C60.9509 1.45487 61.3105 1.8334 61.7276 2.34145C62.5574 3.35195 63.5399 4.7825 64.4821 6.41109C65.4234 8.03815 66.31 9.83808 66.9587 11.5831C67.6123 13.3416 68 14.98 68 16.3043ZM60.68 0.96922C60.68 0.969417 60.6769 0.970959 60.671 0.973257C60.6771 0.970173 60.6801 0.969024 60.68 0.96922ZM60.3453 0.977405C60.3401 0.975504 60.3374 0.974232 60.3373 0.974072C60.3373 0.973911 60.3399 0.974862 60.3453 0.977405Z" fill="#FCF4E7" stroke="#404040" stroke-width="2"/>
<path d="M62.5 9.5L61 7" stroke="#404040" stroke-linecap="round"/>
<path d="M63 33H58V20H63V33Z" fill="#FBF6E9"/>
<path d="M73.7554 28.9476C73.2774 28.9476 72.8152 29.0479 72.3947 29.2323C71.9104 28.1088 70.7482 27.3143 69.3925 27.3143C68.9141 27.3143 68.4519 27.4146 68.0311 27.5994C67.5468 26.4759 66.3845 25.6817 65.0288 25.6817C64.6035 25.6817 64.1909 25.7631 63.8084 25.9108C63.8084 25.9108 63.8106 20.1421 63.8084 20.0961V20.095C63.8084 20.095 63.8084 20.0943 63.8084 20.0939C63.731 18.4599 62.311 17.1523 60.5716 17.1523C58.8322 17.1523 57.327 18.5345 57.327 20.2334V31.7183C56.0847 30.7611 54.6358 30.4264 53.9091 30.3137C53.2346 30.2092 52.5658 30.395 52.019 30.8364C51.381 31.3512 51 32.1393 51 32.9453C51 33.7063 51.7677 34.839 53.3646 37.1252C54.3495 38.5352 55.4662 40.1339 56.1805 41.48C57.8857 44.692 58.8525 51.2837 58.8623 51.3498C58.9168 51.7258 59.2557 51.9984 59.6442 51.9984C59.6803 51.9984 59.7164 51.9962 59.7528 51.9912C60.1853 51.9349 60.4882 51.5563 60.4288 51.1457C60.3882 50.8653 59.4169 44.2403 57.593 40.8039C56.8362 39.3782 55.6921 37.7403 54.6824 36.2954C53.8189 35.0591 52.6368 33.3666 52.5812 32.9449C52.5812 32.5849 52.7627 32.206 53.043 31.9798C53.2354 31.8243 53.4402 31.7615 53.6547 31.795C54.4543 31.9188 56.3752 32.3833 57.327 34.012V35.2889C57.327 35.7035 57.6809 36.0396 58.1176 36.0396C58.5542 36.0396 58.9081 35.7035 58.9081 35.2889V20.2334C58.9081 19.3622 59.6544 18.6533 60.572 18.6533C61.4896 18.6533 62.1892 19.3258 62.2279 20.1642V32.9542C62.2279 33.3687 62.5819 33.7048 63.0185 33.7048C63.4552 33.7048 63.8091 33.3687 63.8091 32.9542V27.6918C64.1221 27.3703 64.5618 27.1823 65.0296 27.1823C65.9464 27.1823 66.6927 27.8909 66.6927 28.7625V32.9453C66.6927 33.3598 67.0466 33.6959 67.4833 33.6959C67.9199 33.6959 68.2738 33.3598 68.2738 32.9453V29.238C68.5793 28.9715 68.9724 28.8153 69.3936 28.8153C70.3104 28.8153 71.0567 29.5238 71.0567 30.395V34.5779C71.0567 34.9924 71.4106 35.3285 71.8473 35.3285C72.2839 35.3285 72.6379 34.9924 72.6379 34.5779V30.8706C72.9426 30.6045 73.3353 30.4486 73.7569 30.4486C74.6741 30.4486 75.4207 31.1571 75.4207 32.028V39.841C75.4207 41.8667 74.4441 44.3317 73.5833 46.5066C72.8363 48.3921 72.1915 50.0201 72.1915 51.2481C72.1915 51.6626 72.5454 51.9987 72.9821 51.9987C73.4187 51.9987 73.7726 51.6626 73.7726 51.2481C73.7726 50.293 74.3994 48.7107 75.0634 47.0353C75.9719 44.7409 77.0019 42.14 77.0019 39.8413V32.0284C77.0019 30.3298 75.5466 28.948 73.7572 28.948L73.7554 28.9476Z" fill="#404040"/>
<path d="M64 16.5C64.1667 16.1667 64.5 15.2 64.5 14C64.5 12.8 63.8333 11.5 63.5 11" stroke="#404040" stroke-linecap="round"/>
</g>
<defs>
<clipPath id="clip0_2675_12967">
<rect width="26" height="52" fill="white" transform="translate(51)"/>
</clipPath>
</defs>
</svg>
