<svg width="48" height="21" viewBox="0 0 48 21" fill="none" xmlns="http://www.w3.org/2000/svg">
<path fill-rule="evenodd" clip-rule="evenodd" d="M46.7595 1.43483H35.3347C35.3009 1.43044 35.2666 1.43368 35.2343 1.44431C35.2021 1.45494 35.1728 1.47267 35.1487 1.49612C35.1246 1.51957 35.1064 1.54809 35.0955 1.5795C35.0846 1.61091 35.0813 1.64435 35.0858 1.67722V1.84932C35.0858 1.99234 35.1729 2.06021 35.3347 2.06021C36.4473 2.0796 36.9999 2.56439 36.9999 3.54608V18.0097C36.9999 18.5987 36.8854 18.9793 36.6414 19.195C36.3975 19.4107 35.9843 19.4786 35.3347 19.4956C35.1779 19.4956 35.0858 19.5635 35.0858 19.6919V19.9901C35.0813 20.0229 35.0846 20.0564 35.0955 20.0878C35.1064 20.1192 35.1246 20.1477 35.1487 20.1712C35.1728 20.1946 35.2021 20.2123 35.2343 20.223C35.2666 20.2336 35.3009 20.2368 35.3347 20.2325H46.7595C46.7931 20.2364 46.8272 20.2328 46.8593 20.222C46.8913 20.2112 46.9204 20.1934 46.9443 20.1701C46.9683 20.1468 46.9865 20.1184 46.9976 20.0872C47.0087 20.0561 47.0124 20.0228 47.0084 19.9901V19.6919C47.0084 19.5635 46.9213 19.4956 46.7595 19.4956C46.1198 19.4786 45.6991 19.3744 45.4801 19.195C45.2611 19.0156 45.0968 18.5987 45.0968 18.0097V3.54123C45.0968 2.90131 45.2262 2.48197 45.4801 2.30503C45.6643 2.14262 46.0949 2.06263 46.7595 2.06263C46.9262 2.06263 47.0084 1.99476 47.0084 1.85175V1.67965C47.0124 1.64688 47.0087 1.61364 46.9976 1.58246C46.9865 1.55128 46.9683 1.52296 46.9443 1.49963C46.9204 1.47629 46.8913 1.45854 46.8593 1.44774C46.8272 1.43694 46.7931 1.43335 46.7595 1.43725V1.43483ZM30.5582 2.04809L30.6005 1.77418C30.6005 1.56088 30.5134 1.4518 30.3292 1.4518H25.3635C25.1444 1.4518 25.0399 1.56087 25.0399 1.80084C25.0399 2.04081 25.1619 2.15958 25.3809 2.15958H25.9758C26.4587 2.15958 26.7026 2.31229 26.7026 2.6274C26.695 2.78455 26.6337 2.93471 26.5284 3.05401C26.1351 3.58902 25.7113 4.10209 25.2589 4.5908L19.4968 10.8155C19.2055 11.0966 19.0587 11.0579 19.0587 10.687V3.37883C19.0587 2.54257 19.5565 2.11595 20.5521 2.11595L20.9205 2.07475C20.9902 2.03112 21.0151 1.92931 21.0151 1.75721C21.0151 1.54391 20.9205 1.4518 20.7264 1.4518H14.9243C14.6282 1.4518 14.4863 1.57784 14.4863 1.81781C14.4804 1.86715 14.4863 1.91713 14.5034 1.96392C14.5205 2.01071 14.5484 2.05305 14.5849 2.08769C14.6215 2.12234 14.6657 2.14838 14.7142 2.16378C14.7627 2.17919 14.8141 2.18355 14.8646 2.17655C15.8976 2.17655 16.4228 2.56923 16.4228 3.38852V18.2715C16.4228 19.0811 15.8976 19.4835 14.8646 19.4835C14.6157 19.4835 14.4863 19.5925 14.4863 19.8228L14.5585 20.1476L14.9243 20.2082H20.7313C20.7725 20.2082 20.8132 20.1996 20.8507 20.1831C20.8882 20.1667 20.9217 20.1426 20.949 20.1126C20.9762 20.0826 20.9967 20.0473 21.0089 20.0091C21.0212 19.9708 21.025 19.9305 21.0201 19.8907C21.0201 19.721 20.9952 19.6095 20.9255 19.5683L20.5571 19.5247C19.5615 19.5247 19.0637 19.115 19.0637 18.2715V13.2636C19.0637 12.7934 19.1334 12.505 19.2827 12.3765L20.6119 10.9609C20.642 10.9133 20.685 10.8748 20.7362 10.8496C20.7873 10.8243 20.8447 10.8134 20.9019 10.8179C20.959 10.8224 21.0138 10.8422 21.0602 10.8751C21.1065 10.9081 21.1426 10.9529 21.1644 11.0045L25.9808 18.2182C26.0874 18.4013 26.148 18.6065 26.1575 18.8169C26.1706 18.9273 26.146 19.0389 26.0875 19.1344C26.029 19.2299 25.9399 19.304 25.8339 19.3453L24.9478 19.4568C24.6989 19.4568 24.5968 19.5828 24.5968 19.8301C24.5968 20.0773 24.7288 20.1816 24.9752 20.1816H31.4741C31.6309 20.1816 31.723 20.0701 31.723 19.8301C31.723 19.5901 31.6085 19.4471 31.3721 19.4471C30.3043 19.4132 29.5327 18.9866 29.0249 18.177L22.9814 9.10902C22.8822 8.98704 22.8248 8.83784 22.8172 8.6824L23.0661 8.31639L27.8426 3.16309C28.4754 2.51111 29.3463 2.12796 30.2669 2.09656L30.5582 2.04566V2.04809ZM27.3697 11.2251H34.0901C34.1239 11.2295 34.1582 11.2263 34.1905 11.2156C34.2227 11.205 34.252 11.1873 34.2761 11.1638C34.3002 11.1404 34.3184 11.1118 34.3293 11.0804C34.3402 11.049 34.3436 11.0156 34.339 10.9827V10.6773C34.3436 10.6444 34.3402 10.611 34.3293 10.5796C34.3184 10.5482 34.3002 10.5196 34.2761 10.4962C34.252 10.4728 34.2227 10.455 34.1905 10.4444C34.1582 10.4338 34.1239 10.4305 34.0901 10.4349H27.3697C27.2129 10.4349 27.1432 10.5197 27.1432 10.6773V10.9948C27.1432 11.1475 27.2129 11.2372 27.3697 11.2372V11.2251ZM42.5131 3.09764V18.5769C42.5154 18.712 42.4894 18.8461 42.4368 18.9711C42.3842 19.0962 42.306 19.2094 42.207 19.3041C42.1092 19.3997 41.9927 19.4754 41.8645 19.5265C41.7363 19.5777 41.5988 19.6035 41.4602 19.6022H40.6712C40.3869 19.6046 40.1131 19.4974 39.9096 19.3041C39.8051 19.2127 39.722 19.1004 39.6662 18.9749C39.6104 18.8494 39.583 18.7137 39.586 18.5769V3.09764C39.5849 2.95759 39.613 2.81878 39.6687 2.68962C39.7243 2.56046 39.8062 2.44364 39.9096 2.34623C40.0093 2.24906 40.1282 2.17255 40.2591 2.12131C40.39 2.07007 40.5302 2.04517 40.6712 2.04809H41.4602C41.5991 2.04516 41.737 2.07011 41.8655 2.12141C41.994 2.17271 42.1102 2.24924 42.207 2.34623C42.4043 2.54913 42.5139 2.81818 42.5131 3.09764ZM8.41297 1.40089C8.92865 1.55421 9.42861 1.75384 9.9064 1.99718C10.9294 2.57893 11.6313 2.48197 11.9997 1.68207C12.0248 1.60954 12.0732 1.5468 12.1377 1.50315C12.2023 1.45949 12.2796 1.43724 12.3581 1.43968C12.6369 1.43968 12.7688 1.54875 12.7688 1.77902V6.58084C12.7688 6.79415 12.6369 6.90565 12.393 6.90565L12.0868 6.86445C12.0151 6.80936 11.9679 6.7295 11.9549 6.64144C11.6736 5.06346 10.9294 3.83453 9.68737 2.98373C8.7772 2.33415 7.67954 1.98123 6.55114 1.97536C5.35141 1.97536 4.43047 2.33411 3.79327 3.0419C3.24252 3.67105 2.95154 4.47707 2.97685 5.30343C2.97177 5.75765 3.07422 6.2069 3.27624 6.61633C3.47825 7.02577 3.7744 7.38438 4.14173 7.66435C4.75652 8.14913 5.82434 8.67028 7.32276 9.22536C9.59029 10.035 11.1659 10.7791 12.0246 11.4263C12.6236 11.8763 13.1049 12.4578 13.4293 13.1233C13.7537 13.7889 13.912 14.5197 13.8914 15.2561C13.8914 16.8341 13.3936 18.08 12.3581 19.035C11.3227 19.9901 9.81679 20.5015 7.96991 20.5015C6.56856 20.5015 4.95815 20.1428 3.15357 19.4447C2.81511 19.2859 2.44106 19.2125 2.06586 19.2314C1.7597 19.2726 1.49835 19.5028 1.26935 19.9125L1.12001 20.1549L0.841233 20.1816C0.592327 20.1816 0.462891 20.0773 0.462891 19.9004V14.5677C0.462891 14.398 0.59481 14.3108 0.858651 14.3108C1.07769 14.3108 1.20961 14.398 1.2345 14.5847C1.48638 15.766 2.0687 16.8566 2.91711 17.7358C3.47048 18.326 4.14805 18.7931 4.90362 19.1052C5.65919 19.4172 6.47499 19.5669 7.29536 19.5441C8.60959 19.5441 9.61517 19.1853 10.2997 18.4775C10.8689 17.859 11.1672 17.0482 11.131 16.2184C11.1434 15.6632 11.0177 15.1133 10.7646 14.6157C10.5115 14.118 10.1385 13.6874 9.6774 13.3606C9.1074 12.934 8.12672 12.4637 6.7428 11.9523L5.21949 11.4239C4.52808 11.1666 3.86715 10.8374 3.24816 10.4422C1.60289 9.39504 0.788957 7.99642 0.788957 6.24634C0.788957 4.70229 1.31415 3.43215 2.36453 2.45046C3.41492 1.46876 4.68435 0.996094 6.26241 0.996094C6.9956 1.0193 7.72118 1.14837 8.41544 1.37908L8.41297 1.40089Z" fill="white"/>
</svg>
