<svg width="142" height="53" viewBox="0 0 142 53" fill="none" xmlns="http://www.w3.org/2000/svg">
<path d="M12.21 32.2272V30.8192H2.222V46.2852H12.21V44.8772H3.784V39.1352H11.154V37.7272H3.784V32.2272H12.21ZM21.1293 46.4832C23.9233 46.4832 26.2553 44.9212 26.2553 42.0612C26.2553 39.5312 24.6713 38.2332 21.3053 37.4412C19.0613 36.9132 17.8293 36.2312 17.8293 34.6252C17.8293 33.0192 19.1933 32.0292 21.2173 32.0292C23.0213 32.0292 24.0113 32.4252 25.0893 33.2392L25.8813 32.0292C24.8693 31.1932 23.4833 30.6212 21.1733 30.6212C18.3573 30.6212 16.2673 32.3372 16.2673 34.6692C16.2673 37.0672 17.8733 38.2772 20.9313 38.9592C23.6373 39.5532 24.6933 40.4992 24.6933 42.2152C24.6933 43.9972 23.2193 45.0532 21.0633 45.0532C19.3033 45.0532 17.6533 44.4592 16.5093 43.5792L15.6733 44.9212C17.0593 45.9332 18.9733 46.4832 21.1293 46.4832ZM35.0658 46.4832C37.8598 46.4832 40.1918 44.9212 40.1918 42.0612C40.1918 39.5312 38.6078 38.2332 35.2418 37.4412C32.9978 36.9132 31.7658 36.2312 31.7658 34.6252C31.7658 33.0192 33.1298 32.0292 35.1538 32.0292C36.9578 32.0292 37.9478 32.4252 39.0258 33.2392L39.8178 32.0292C38.8058 31.1932 37.4198 30.6212 35.1098 30.6212C32.2938 30.6212 30.2038 32.3372 30.2038 34.6692C30.2038 37.0672 31.8098 38.2772 34.8678 38.9592C37.5738 39.5532 38.6298 40.4992 38.6298 42.2152C38.6298 43.9972 37.1558 45.0532 34.9998 45.0532C33.2398 45.0532 31.5898 44.4592 30.4458 43.5792L29.6098 44.9212C30.9958 45.9332 32.9098 46.4832 35.0658 46.4832ZM54.9862 32.2272V30.8192H44.9982V46.2852H54.9862V44.8772H46.5602V39.1352H53.9302V37.7272H46.5602V32.2272H54.9862ZM71.2535 30.8192V43.4032L60.8915 30.6652H59.9015V46.2852H61.4635V33.7452L71.8475 46.4392H72.8155V30.8192H71.2535ZM89.0969 30.8192H76.8429V32.2272H82.2329V46.2852H83.8169V32.2272H89.0969V30.8192ZM93.1241 46.2852H94.6861V30.8192H93.1241V46.2852ZM111.371 46.2852H113.043L106.531 30.8192H105.189L98.6552 46.2852H100.327L101.779 42.7872H109.919L111.371 46.2852ZM105.849 32.9752L109.347 41.3792H102.351L105.849 32.9752ZM118.563 44.8772V30.8192H117.001V46.2852H126.989V44.8772H118.563ZM135.027 46.4832C137.821 46.4832 140.153 44.9212 140.153 42.0612C140.153 39.5312 138.569 38.2332 135.203 37.4412C132.959 36.9132 131.727 36.2312 131.727 34.6252C131.727 33.0192 133.091 32.0292 135.115 32.0292C136.919 32.0292 137.909 32.4252 138.987 33.2392L139.779 32.0292C138.767 31.1932 137.381 30.6212 135.071 30.6212C132.255 30.6212 130.165 32.3372 130.165 34.6692C130.165 37.0672 131.771 38.2772 134.829 38.9592C137.535 39.5532 138.591 40.4992 138.591 42.2152C138.591 43.9972 137.117 45.0532 134.961 45.0532C133.201 45.0532 131.551 44.4592 130.407 43.5792L129.571 44.9212C130.957 45.9332 132.871 46.4832 135.027 46.4832Z" fill="white"/>
<path d="M45.3352 19.9706H46.9738V4.09273H45.3352V19.9706ZM37.3692 4.09273H27L27 19.9706H28.6809V12.9084H37.1006C38.3593 12.9084 39.6871 12.8507 40.8653 12.1667C42.1739 11.4173 42.9222 10.0685 42.9222 8.45828C42.9222 7.30157 42.5039 6.20634 41.771 5.45313C40.4623 4.09658 38.674 4.09657 37.3692 4.09657M39.8138 10.9254C38.8774 11.4711 37.6532 11.4711 36.571 11.4711H28.6809V5.55688H37.5227C39.4339 5.55688 40.4508 6.05262 40.9344 7.21702C41.0725 7.59747 41.1531 8.04709 41.1531 8.4775C41.1531 9.58041 40.7041 10.4028 39.8138 10.9216M49.238 5.55688H56.2685V19.9706H57.9072V5.55688H64.6268V4.09273H49.2342V5.55688H49.238ZM113.705 4.05043H111.924L104.12 19.8179L104.066 19.9293H105.789L107.785 16.0058H117.782L119.777 19.8871L119.8 19.9293H121.592L113.728 4.0927L113.705 4.05043ZM108.46 14.607L112.731 5.88362L117.087 14.607H108.46ZM68.7349 12.527H81.1802V11.0628H68.7349V5.55688H82.1972V4.09273H67.0501V19.9706H82.8419V18.5064H68.7349V13.995V12.527ZM100.178 11.8958C101.448 10.8928 101.716 9.49786 101.716 8.50254C101.716 6.90005 100.945 5.34379 99.7017 4.62901C98.5965 4.01798 97.284 4.01799 96.2249 4.01799H85.326V19.9706H86.9877V12.9314H94.0413L99.8499 19.9251L99.8729 19.952H102.187L96.2402 12.9276C97.3186 12.8853 98.9879 12.7816 100.181 11.8516M86.9916 11.4481V5.41482H96.2747C97.1344 5.41482 98.113 5.41482 98.892 6.022C99.529 6.49468 99.9243 7.4745 99.9243 8.38911C99.9243 9.18075 99.6518 9.94933 99.1913 10.4489C98.3317 11.3712 96.9885 11.4442 95.323 11.4442H86.9916V11.4481ZM117.833 4.0927H118.604V0.714782H119.725V0H116.716V0.714782H117.837V4.0927H117.833ZM122.856 0L122.108 3.17425H122.097L121.348 0H120.17V4.0927H120.907V0.680196H120.918L121.724 4.0927H122.45L123.255 0.680196H123.267V4.0927H124V0H122.86H122.856Z" fill="white"/>
</svg>
