<svg width="20" height="25" viewBox="0 0 20 25" fill="none" xmlns="http://www.w3.org/2000/svg">
<path d="M17.0948 8.64037C16.7472 8.64037 16.411 8.71152 16.1052 8.84242C15.753 8.04511 14.9077 7.48125 13.9217 7.48125C13.5739 7.48125 13.2377 7.5524 12.9317 7.68355C12.5794 6.88624 11.7342 6.32264 10.7482 6.32264C10.4388 6.32264 10.1388 6.38036 9.86058 6.48519C9.86058 6.48519 9.86222 2.39129 9.86058 2.35863V2.35787C9.86058 2.35787 9.86058 2.35737 9.86058 2.35711C9.80429 1.19749 8.77158 0.269531 7.50658 0.269531C6.24158 0.269531 5.14684 1.2504 5.14684 2.45611V10.6067C4.24339 9.92736 3.18963 9.68986 2.66112 9.60985C2.17059 9.53566 1.68415 9.66758 1.28654 9.98078C0.822513 10.3461 0.54541 10.9054 0.54541 11.4774C0.54541 12.0175 1.10371 12.8214 2.26514 14.4438C2.9814 15.4444 3.79357 16.579 4.31307 17.5343C5.5532 19.8138 6.25634 24.4918 6.26345 24.5387C6.30307 24.8055 6.54957 24.999 6.83214 24.999C6.85837 24.999 6.8846 24.9974 6.91111 24.9939C7.22565 24.9539 7.44591 24.6853 7.40274 24.3938C7.37322 24.1948 6.6668 19.4933 5.34032 17.0545C4.78994 16.0427 3.95781 14.8803 3.22352 13.8549C2.59553 12.9776 1.7358 11.7764 1.69536 11.4772C1.69536 11.2217 1.82735 10.9528 2.03121 10.7923C2.17113 10.6819 2.32007 10.6373 2.47611 10.6611C3.05764 10.749 4.45463 11.0786 5.14684 12.2345V13.1406C5.14684 13.4348 5.40427 13.6734 5.72181 13.6734C6.03936 13.6734 6.29679 13.4348 6.29679 13.1406V2.45611C6.29679 1.83781 6.83951 1.33472 7.50685 1.33472C8.1742 1.33472 8.68304 1.81199 8.71118 2.40699V11.4837C8.71118 11.7779 8.96861 12.0165 9.28616 12.0165C9.60371 12.0165 9.86113 11.7779 9.86113 11.4837V7.74913C10.0888 7.521 10.4085 7.38757 10.7487 7.38757C11.4155 7.38757 11.9583 7.89041 11.9583 8.50896V11.4774C11.9583 11.7716 12.2157 12.0101 12.5332 12.0101C12.8508 12.0101 13.1082 11.7716 13.1082 11.4774V8.84647C13.3304 8.65734 13.6162 8.54644 13.9226 8.54644C14.5894 8.54644 15.1321 9.04928 15.1321 9.66758V12.636C15.1321 12.9302 15.3895 13.1687 15.7071 13.1687C16.0246 13.1687 16.282 12.9302 16.282 12.636V10.0051C16.5037 9.8162 16.7892 9.70556 17.0959 9.70556C17.7629 9.70556 18.3059 10.2084 18.3059 10.8264V16.3711C18.3059 17.8088 17.5957 19.5581 16.9696 21.1016C16.4263 22.4397 15.9574 23.595 15.9574 24.4665C15.9574 24.7607 16.2148 24.9992 16.5324 24.9992C16.8499 24.9992 17.1073 24.7607 17.1073 24.4665C17.1073 23.7887 17.5632 22.6658 18.046 21.4768C18.7068 19.8485 19.4559 18.0027 19.4559 16.3714V10.8267C19.4559 9.62124 18.3975 8.64062 17.0961 8.64062L17.0948 8.64037Z" fill="white"/>
</svg>
