<svg width="22" height="30" viewBox="0 0 22 30" fill="none" xmlns="http://www.w3.org/2000/svg">
<path d="M19.2545 10.4962C18.8501 10.4962 18.459 10.5811 18.1032 10.7371C17.6934 9.78651 16.71 9.11421 15.5629 9.11421C15.1581 9.11421 14.767 9.19904 14.4109 9.35542C14.0011 8.40478 13.0177 7.73279 11.8705 7.73279C11.5106 7.73279 11.1615 7.80162 10.8378 7.9266C10.8378 7.9266 10.8398 3.04542 10.8378 3.00648V3.00557C10.8378 3.00557 10.8378 3.00497 10.8378 3.00467C10.7723 1.62203 9.57083 0.515625 8.09905 0.515625C6.62728 0.515625 5.35359 1.68513 5.35359 3.1227V12.8407C4.30245 12.0307 3.07645 11.7476 2.46154 11.6522C1.89083 11.5637 1.32488 11.721 0.862271 12.0944C0.322398 12.53 0 13.1969 0 13.8789C0 14.5228 0.649565 15.4813 2.00084 17.4157C2.83418 18.6088 3.77911 19.9615 4.38353 21.1006C5.82637 23.8184 6.64445 29.396 6.65272 29.4519C6.69882 29.7701 6.98561 30.0007 7.31436 30.0007C7.34489 30.0007 7.37541 29.9989 7.40625 29.9947C7.77221 29.947 8.02847 29.6267 7.97823 29.2792C7.9439 29.0419 7.122 23.4362 5.57869 20.5285C4.93835 19.3221 3.9702 17.9362 3.11588 16.7136C2.38524 15.6675 1.38498 14.2354 1.33792 13.8786C1.33792 13.574 1.49149 13.2534 1.72868 13.062C1.89146 12.9303 2.06475 12.8772 2.24629 12.9056C2.92288 13.0103 4.54823 13.4034 5.35359 14.7815V15.8619C5.35359 16.2127 5.65309 16.4971 6.02255 16.4971C6.392 16.4971 6.6915 16.2127 6.6915 15.8619V3.1227C6.6915 2.3855 7.32295 1.78565 8.09937 1.78565C8.8758 1.78565 9.46781 2.35471 9.50056 3.06414V13.8864C9.50056 14.2372 9.80007 14.5216 10.1695 14.5216C10.539 14.5216 10.8385 14.2372 10.8385 13.8864V9.43361C11.1033 9.16161 11.4753 9.00251 11.8712 9.00251C12.647 9.00251 13.2784 9.60206 13.2784 10.3396V13.8789C13.2784 14.2297 13.5779 14.514 13.9474 14.514C14.3168 14.514 14.6163 14.2297 14.6163 13.8789V10.742C14.8748 10.5165 15.2074 10.3842 15.5638 10.3842C16.3396 10.3842 16.971 10.9838 16.971 11.721V15.2603C16.971 15.6111 17.2705 15.8955 17.64 15.8955C18.0095 15.8955 18.309 15.6111 18.309 15.2603V12.1234C18.5668 11.8982 18.8991 11.7663 19.2558 11.7663C20.0319 11.7663 20.6637 12.3658 20.6637 13.1027V19.7137C20.6637 21.4278 19.8373 23.5135 19.1089 25.3538C18.4768 26.9493 17.9312 28.3268 17.9312 29.3659C17.9312 29.7166 18.2307 30.001 18.6002 30.001C18.9697 30.001 19.2692 29.7166 19.2692 29.3659C19.2692 28.5577 19.7995 27.2189 20.3613 25.8012C21.1301 23.8598 22.0016 21.659 22.0016 19.714V13.103C22.0016 11.6657 20.7702 10.4965 19.2561 10.4965L19.2545 10.4962Z" fill="#404040"/>
</svg>
