<svg width="32" height="32" viewBox="0 0 32 32" fill="none" xmlns="http://www.w3.org/2000/svg">
<circle cx="16" cy="16" r="16" fill="white"/>
<path d="M13.358 12.8921H9.59034C9.4355 12.8921 9.33228 12.9953 9.33228 13.1501V18.8275C9.33228 18.9823 9.4355 19.0855 9.59034 19.0855H13.358C13.4097 19.0855 13.4613 19.0855 13.5129 19.1371L19.758 23.9371C19.9128 24.0919 20.1709 23.9371 20.1709 23.7306V8.24694C20.1709 8.0405 19.9128 7.93727 19.758 8.0405L13.5129 12.8404C13.4613 12.8404 13.4097 12.8921 13.358 12.8921Z" fill="white" stroke="#202020" stroke-miterlimit="10"/>
<path d="M22.8027 19.6532C23.7318 18.7241 24.2995 17.4338 24.2995 15.9887C24.2995 14.5435 23.7318 13.2532 22.8027 12.3242" fill="white"/>
<path d="M22.8027 19.6532C23.7318 18.7241 24.2995 17.4338 24.2995 15.9887C24.2995 14.5435 23.7318 13.2532 22.8027 12.3242" stroke="#202020" stroke-miterlimit="10"/>
</svg>
