<svg width="288" height="126" viewBox="0 0 288 126" fill="none" xmlns="http://www.w3.org/2000/svg">
<path d="M287.972 125.051C285.197 125.021 283.559 124.983 283.327 124.937C262.575 124.937 253.3 95.9032 249.9 82.1502L246.3 70.9192C242.34 58.7775 233 55.0981 226.139 55.0981C223.866 55.0981 214.618 55.0981 208.497 65.7682C206.387 69.4475 199.217 81.5 198.777 82.1502C195.492 87 188 104.101 179.849 105.157C178.036 105.392 171.058 105.827 166.056 98.9628C161.15 92.2302 161.564 84.2977 158.932 77.3666C156.704 71.5 154.5 68.996 151.353 68.996C147 68.996 145.502 72.7371 142.993 76.8642C139.857 82.0194 133.203 88.5832 125.13 88.5832C111.4 88.5832 101.012 79.4805 100.271 78.8733C95 74.5544 77.5 55.9998 69.6528 36.0789C56.501 2.69224 50 1.5 43.5 1.36114C25.921 0.985587 23.8332 33.4513 19.6323 59.3198C16.3475 81.0136 10.4942 95.605 1.5 105.4C1.33333 105.6 0.8 106 0 106" stroke="#E7D8D3" stroke-width="0.8" stroke-linecap="round" stroke-linejoin="round"/>
</svg>
