<svg width="170" height="35" viewBox="0 0 170 35" fill="none" xmlns="http://www.w3.org/2000/svg">
<path d="M32.1338 35H35.0057V7.17282H32.1338V35ZM18.1729 7.17282H0L0 35H2.94586V22.6229H17.7021C19.9081 22.6229 22.2352 22.5219 24.3 21.3231C26.5934 20.0097 27.905 17.6458 27.905 14.8238C27.905 12.7966 27.1719 10.8771 25.8872 9.55703C23.5938 7.17957 20.4596 7.17956 18.1729 7.17956M22.4571 19.1477C20.8161 20.104 18.6706 20.104 16.7739 20.104H2.94586V9.73887H18.4419C21.7913 9.73887 23.5736 10.6077 24.421 12.6484C24.6632 13.3152 24.8044 14.1032 24.8044 14.8575C24.8044 16.7904 24.0175 18.2317 22.4571 19.1409M38.9738 9.73887H51.2953V35H54.1672V9.73887H65.944V7.17282H38.9671V9.73887H38.9738ZM151.957 7.09869H148.836L135.158 34.7324L135.064 34.9277H138.084L141.581 28.0515H159.102L162.599 34.8536L162.64 34.9277H165.781L151.997 7.17278L151.957 7.09869ZM142.765 25.5999L150.251 10.3115L157.885 25.5999H142.765ZM73.1436 21.9545H94.955V19.3885H73.1436V9.73887H96.7374V7.17282H70.191V35H97.8673V32.434H73.1436V24.5273V21.9545ZM128.249 20.8484C130.476 19.0905 130.946 16.6457 130.946 14.9014C130.946 12.0929 129.595 9.3654 127.415 8.11269C125.478 7.04183 123.178 7.04183 121.322 7.04183H102.221V35H105.133V22.6633H117.495L127.675 34.9203L127.715 34.9674H131.771L121.349 22.6566C123.239 22.5825 126.164 22.4007 128.256 20.7708M105.14 20.0636V9.48989H121.409C122.916 9.48989 124.631 9.48989 125.996 10.554C127.113 11.3824 127.806 13.0996 127.806 14.7026C127.806 16.09 127.328 17.437 126.521 18.3125C125.014 19.9289 122.66 20.0569 119.741 20.0569H105.14V20.0636ZM159.192 7.17278H160.544V1.25271H162.508V0H157.235V1.25271H159.199V7.17278H159.192ZM167.996 0L166.684 5.56311H166.664L165.353 0H163.288V7.17278H164.579V1.1921H164.599L166.012 7.17278H167.283L168.695 1.1921H168.715V7.17278H170V0H168.002H167.996Z" fill="white"/>
</svg>
