<svg width="246" height="17" viewBox="0 0 246 17" fill="none" xmlns="http://www.w3.org/2000/svg">
<path d="M86.0258 16.153C88.1848 16.153 89.9868 14.946 89.9868 12.736C89.9868 10.781 88.7628 9.778 86.1618 9.166C84.4278 8.758 83.4758 8.231 83.4758 6.99C83.4758 5.749 84.5298 4.984 86.0938 4.984C87.4878 4.984 88.2528 5.29 89.0858 5.919L89.6978 4.984C88.9158 4.338 87.8448 3.896 86.0598 3.896C83.8838 3.896 82.2688 5.222 82.2688 7.024C82.2688 8.877 83.5098 9.812 85.8728 10.339C87.9638 10.798 88.7798 11.529 88.7798 12.855C88.7798 14.232 87.6408 15.048 85.9748 15.048C84.6148 15.048 83.3398 14.589 82.4558 13.909L81.8098 14.946C82.8808 15.728 84.3598 16.153 86.0258 16.153ZM99.6339 16.153C101.827 16.153 103.068 15.422 103.51 15.116L102.949 14.164C102.541 14.436 101.555 15.048 99.7869 15.048C96.6079 15.048 94.5849 12.974 94.5849 10.016C94.5849 7.024 96.6759 5.001 99.7869 5.001C101.555 5.001 102.592 5.681 102.915 5.953L103.51 4.984C103.068 4.678 101.827 3.896 99.6339 3.896C95.9449 3.896 93.3609 6.48 93.3609 10.05C93.3609 13.569 95.8769 16.153 99.6339 16.153ZM107.432 16H108.639V4.049H107.432V16ZM121.515 5.137V4.049H113.797V16H121.515V14.912H115.004V10.475H120.699V9.387H115.004V5.137H121.515ZM134.596 4.049V13.773L126.589 3.93H125.824V16H127.031V6.31L135.055 16.119H135.803V4.049H134.596ZM146.361 16.153C148.554 16.153 149.795 15.422 150.237 15.116L149.676 14.164C149.268 14.436 148.282 15.048 146.514 15.048C143.335 15.048 141.312 12.974 141.312 10.016C141.312 7.024 143.403 5.001 146.514 5.001C148.282 5.001 149.319 5.681 149.642 5.953L150.237 4.984C149.795 4.678 148.554 3.896 146.361 3.896C142.672 3.896 140.088 6.48 140.088 10.05C140.088 13.569 142.604 16.153 146.361 16.153ZM161.877 5.137V4.049H154.159V16H161.877V14.912H155.366V10.475H161.061V9.387H155.366V5.137H161.877ZM179.87 5.137V4.049H172.152V16H179.87V14.912H173.359V10.475H179.054V9.387H173.359V5.137H179.87ZM193.239 16L188.7 9.863L192.899 4.049H191.539L187.918 9.115L184.246 4.049H182.784L187.136 9.965L182.682 16H184.042L187.884 10.73L191.794 16H193.239ZM200.695 4.049H196.802V16H198.009V12.056H200.661C203.33 12.056 205.302 10.713 205.302 8.044C205.302 5.443 203.347 4.049 200.695 4.049ZM200.661 10.968H198.009V5.137H200.661C202.616 5.137 204.01 6.191 204.01 8.044C204.01 9.931 202.633 10.968 200.661 10.968ZM214.631 16.153C218.218 16.153 220.802 13.535 220.802 10.033C220.802 6.565 218.218 3.896 214.631 3.896C211.027 3.896 208.426 6.599 208.426 10.033C208.426 13.518 211.027 16.153 214.631 16.153ZM214.631 15.048C211.792 15.048 209.65 12.94 209.65 10.033C209.65 7.211 211.792 5.001 214.631 5.001C217.436 5.001 219.578 7.194 219.578 10.033C219.578 12.957 217.436 15.048 214.631 15.048ZM228.182 16.153C230.341 16.153 232.143 14.946 232.143 12.736C232.143 10.781 230.919 9.778 228.318 9.166C226.584 8.758 225.632 8.231 225.632 6.99C225.632 5.749 226.686 4.984 228.25 4.984C229.644 4.984 230.409 5.29 231.242 5.919L231.854 4.984C231.072 4.338 230.001 3.896 228.216 3.896C226.04 3.896 224.425 5.222 224.425 7.024C224.425 8.877 225.666 9.812 228.029 10.339C230.12 10.798 230.936 11.529 230.936 12.855C230.936 14.232 229.797 15.048 228.131 15.048C226.771 15.048 225.496 14.589 224.612 13.909L223.966 14.946C225.037 15.728 226.516 16.153 228.182 16.153ZM242.402 2.043L241.926 0.751L238.662 2.281L238.968 3.063L242.402 2.043ZM244.085 5.137V4.049H236.367V16H244.085V14.912H237.574V10.475H243.269V9.387H237.574V5.137H244.085Z" fill="white"/>
<path d="M13.8084 16H15.0425V4.07407H13.8084V16ZM7.80919 4.07407H0L0 16H1.26589V10.6955H7.60688C8.55485 10.6955 9.55484 10.6522 10.4421 10.1385C11.4277 9.57561 11.9912 8.56247 11.9912 7.35306C11.9912 6.48424 11.6762 5.66161 11.1242 5.09587C10.1387 4.07696 8.79184 4.07695 7.80919 4.07695M9.65022 9.20614C8.94502 9.61602 8.02306 9.61602 7.20804 9.61602H1.26589V5.1738H7.9248C9.36409 5.1738 10.13 5.54615 10.4941 6.42074C10.5982 6.7065 10.6589 7.04421 10.6589 7.36749C10.6589 8.19589 10.3207 8.81359 9.65022 9.20326M16.7477 5.1738H22.0425V16H23.2766V5.1738H28.3373V4.07407H16.7448V5.1738H16.7477ZM65.2984 4.0423H63.9574L58.0799 15.8853L58.0395 15.969H59.3371L60.84 13.0221H68.3689L69.8718 15.9373L69.8891 15.969H71.2388L65.3158 4.07405L65.2984 4.0423ZM61.3487 11.9714L64.5654 5.41921L67.8458 11.9714H61.3487ZM31.4311 10.4091H40.8038V9.30936H31.4311V5.1738H41.5697V4.07407H30.1623V16H42.0553V14.9003H31.4311V11.5117V10.4091ZM55.111 9.93502C56.0676 9.18166 56.2699 8.13388 56.2699 7.3863C56.2699 6.18266 55.689 5.01374 54.7526 4.47687C53.9202 4.01793 52.9318 4.01793 52.1341 4.01793H43.9261V16H45.1775V10.7129H50.4896L54.8642 15.9658L54.8816 15.986H56.6243L52.1457 10.71C52.9578 10.6782 54.215 10.6003 55.1139 9.90177M45.1804 9.5987V5.0671H52.1717C52.8191 5.0671 53.5561 5.0671 54.1428 5.52315C54.6226 5.87818 54.9202 6.61413 54.9202 7.3011C54.9202 7.8957 54.715 8.47299 54.3682 8.84823C53.7208 9.54097 52.7093 9.59581 51.455 9.59581H45.1804V9.5987ZM68.4075 4.07405H68.9884V1.53688H69.8323V1H67.5664V1.53688H68.4104V4.07405H68.4075ZM72.1907 1L71.6271 3.38419H71.6184L71.0549 1H70.1676V4.07405H70.7225V1.5109H70.7312L71.3381 4.07405H71.8843L72.4913 1.5109H72.4999V4.07405H73.052V1H72.1936H72.1907Z" fill="white"/>
</svg>
