<svg width="81" height="34" viewBox="0 0 81 34" fill="none" xmlns="http://www.w3.org/2000/svg">
<path fill-rule="evenodd" clip-rule="evenodd" d="M80.5641 0.764756H60.683C60.6242 0.757103 60.5645 0.762759 60.5084 0.781286C60.4522 0.799814 60.4013 0.830726 60.3594 0.871597C60.3175 0.912468 60.2858 0.962191 60.2668 1.01694C60.2478 1.07169 60.242 1.12998 60.2498 1.18727V1.48727C60.2498 1.73656 60.4014 1.85486 60.683 1.85486C62.6191 1.88866 63.5807 2.7337 63.5807 4.44489V29.6565C63.5807 30.6832 63.3814 31.3466 62.957 31.7226C62.5325 32.0987 61.8135 32.217 60.683 32.2465C60.4101 32.2465 60.2498 32.3648 60.2498 32.5888V33.1085C60.242 33.1658 60.2478 33.2241 60.2668 33.2788C60.2858 33.3335 60.3175 33.3833 60.3594 33.4242C60.4013 33.465 60.4522 33.4959 60.5084 33.5145C60.5645 33.533 60.6242 33.5386 60.683 33.531H80.5641C80.6227 33.5378 80.6821 33.5315 80.7378 33.5127C80.7935 33.4939 80.8441 33.463 80.8858 33.4223C80.9275 33.3816 80.9592 33.3322 80.9785 33.2779C80.9978 33.2235 81.0042 33.1656 80.9973 33.1085V32.5888C80.9973 32.3648 80.8457 32.2465 80.5641 32.2465C79.451 32.217 78.719 32.0353 78.3378 31.7226C77.9566 31.41 77.6707 30.6832 77.6707 29.6565V4.43643C77.6707 3.32099 77.896 2.59004 78.3378 2.28161C78.6583 1.99852 79.4077 1.85909 80.5641 1.85909C80.8543 1.85909 80.9973 1.74078 80.9973 1.4915V1.1915C81.0042 1.13438 80.9978 1.07645 80.9785 1.0221C80.9592 0.967743 80.9275 0.918385 80.8858 0.877709C80.8441 0.837033 80.7935 0.8061 80.7378 0.787269C80.6821 0.768438 80.6227 0.762191 80.5641 0.768985V0.764756ZM52.371 1.83374L52.4446 1.35629C52.4446 0.984475 52.2931 0.794335 51.9725 0.794335H43.3314C42.9502 0.794335 42.7683 0.984469 42.7683 1.40276C42.7683 1.82105 42.9805 2.02808 43.3617 2.02808H44.3969C45.2372 2.02808 45.6617 2.29426 45.6617 2.84353C45.6484 3.11746 45.5417 3.37921 45.3585 3.58717C44.6741 4.51974 43.9366 5.41408 43.1495 6.26594L33.1222 17.1162C32.6155 17.6063 32.3599 17.5387 32.3599 16.8922V4.15335C32.3599 2.69567 33.2262 1.95203 34.9588 1.95203L35.5998 1.88021C35.7211 1.80415 35.7644 1.6267 35.7644 1.32671C35.7644 0.954896 35.5998 0.794335 35.262 0.794335H25.1655C24.65 0.794335 24.4031 1.01405 24.4031 1.43234C24.393 1.51834 24.4032 1.60547 24.4329 1.68703C24.4627 1.76858 24.5113 1.84238 24.5748 1.90277C24.6384 1.96317 24.7153 2.00855 24.7997 2.0354C24.8841 2.06225 24.9737 2.06986 25.0615 2.05766C26.859 2.05766 27.773 2.74214 27.773 4.17025V30.1128C27.773 31.524 26.859 32.2254 25.0615 32.2254C24.6284 32.2254 24.4031 32.4155 24.4031 32.8169L24.5288 33.3831L25.1655 33.4887H35.2706C35.3422 33.4886 35.413 33.4738 35.4783 33.445C35.5436 33.4163 35.6019 33.3744 35.6493 33.3221C35.6968 33.2698 35.7324 33.2083 35.7537 33.1416C35.775 33.0749 35.7816 33.0046 35.7731 32.9352C35.7731 32.6395 35.7298 32.4451 35.6085 32.3733L34.9674 32.2972C33.2349 32.2972 32.3686 31.5832 32.3686 30.1128V21.3836C32.3686 20.5639 32.4899 20.0611 32.7498 19.8372L35.0627 17.3697C35.1151 17.2868 35.19 17.2196 35.279 17.1756C35.3681 17.1316 35.4679 17.1125 35.5674 17.1204C35.6669 17.1283 35.7622 17.1628 35.8429 17.2202C35.9235 17.2776 35.9863 17.3557 36.0243 17.4457L44.4056 30.0199C44.5911 30.3392 44.6965 30.6968 44.7131 31.0635C44.7359 31.256 44.6931 31.4505 44.5913 31.617C44.4895 31.7834 44.3345 31.9126 44.15 31.9846L42.608 32.1789C42.1749 32.1789 41.9973 32.3987 41.9973 32.8296C41.9973 33.2606 42.2269 33.4423 42.6557 33.4423H53.965C54.2378 33.4423 54.3981 33.2479 54.3981 32.8296C54.3981 32.4113 54.1989 32.162 53.7874 32.162C51.9292 32.1029 50.5865 31.3593 49.7029 29.948L39.1862 14.1417C39.0136 13.9291 38.9136 13.669 38.9004 13.398L39.3335 12.76L47.6455 3.77731C48.7466 2.64083 50.2622 1.97296 51.8642 1.91822L52.371 1.82951V1.83374ZM46.8225 17.8302H58.5173C58.576 17.8379 58.6358 17.8322 58.6919 17.8137C58.748 17.7952 58.799 17.7643 58.8409 17.7234C58.8828 17.6825 58.9145 17.6328 58.9335 17.5781C58.9525 17.5233 58.9583 17.465 58.9504 17.4077V16.8754C58.9583 16.8181 58.9525 16.7598 58.9335 16.705C58.9145 16.6503 58.8828 16.6005 58.8409 16.5597C58.799 16.5188 58.748 16.4879 58.6919 16.4694C58.6358 16.4508 58.576 16.4452 58.5173 16.4528H46.8225C46.5496 16.4528 46.4283 16.6007 46.4283 16.8754V17.4288C46.4283 17.695 46.5496 17.8514 46.8225 17.8514V17.8302ZM73.1748 3.66322V30.6452C73.1787 30.8807 73.1335 31.1145 73.0419 31.3324C72.9503 31.5503 72.8143 31.7478 72.642 31.9128C72.4718 32.0794 72.2692 32.2113 72.046 32.3005C71.8229 32.3898 71.5837 32.4346 71.3426 32.4324H69.9695C69.4747 32.4366 68.9983 32.2498 68.6441 31.9128C68.4622 31.7535 68.3178 31.5577 68.2206 31.339C68.1234 31.1202 68.0758 30.8836 68.081 30.6452V3.66322C68.0792 3.41909 68.1281 3.17714 68.2249 2.952C68.3217 2.72686 68.4643 2.52323 68.6441 2.35343C68.8176 2.18405 69.0246 2.05068 69.2523 1.96136C69.4801 1.87205 69.7241 1.82864 69.9695 1.83374H71.3426C71.5841 1.82863 71.8242 1.87213 72.0478 1.96154C72.2713 2.05096 72.4736 2.18437 72.642 2.35343C72.9854 2.70711 73.1762 3.17609 73.1748 3.66322ZM13.8345 0.705597C14.7319 0.972863 15.6019 1.32083 16.4334 1.745C18.2136 2.75904 19.435 2.59004 20.0761 1.19573C20.1197 1.0693 20.204 0.959944 20.3163 0.883847C20.4286 0.80775 20.5631 0.768957 20.6998 0.773214C21.1849 0.773214 21.4145 0.963332 21.4145 1.36472V9.73479C21.4145 10.1066 21.1849 10.301 20.7604 10.301L20.2277 10.2292C20.1028 10.1331 20.0206 9.99393 19.9981 9.84042C19.5087 7.08983 18.2136 4.94769 16.0522 3.46465C14.4683 2.33238 12.5582 1.71719 10.5946 1.70696C8.50688 1.70696 6.90427 2.3323 5.79543 3.56605C4.83705 4.66272 4.33069 6.06771 4.37472 7.50814C4.36589 8.2999 4.54417 9.08298 4.89571 9.79666C5.24725 10.5103 5.76261 11.1354 6.40182 11.6235C7.47167 12.4685 9.32986 13.3769 11.9374 14.3445C15.8833 15.7557 18.625 17.0528 20.1194 18.1809C21.1617 18.9654 21.9993 19.9789 22.5638 21.1391C23.1284 22.2992 23.4039 23.573 23.3679 24.8567C23.3679 27.6073 22.5016 29.779 20.6998 31.4437C18.8979 33.1085 16.2774 34 13.0635 34C10.6249 34 7.82253 33.3747 4.68226 32.1578C4.09327 31.881 3.44236 31.7531 2.78944 31.786C2.25668 31.8578 1.80187 32.2592 1.40338 32.9733L1.1435 33.3958L0.658382 33.4423C0.225241 33.4423 0 33.2606 0 32.9521V23.6568C0 23.361 0.229563 23.2089 0.688692 23.2089C1.06986 23.2089 1.29942 23.361 1.34274 23.6863C1.78106 25.7455 2.79439 27.6464 4.27077 29.1791C5.23373 30.2079 6.41282 31.0221 7.72765 31.566C9.04247 32.11 10.4621 32.3709 11.8897 32.3311C14.1767 32.3311 15.9266 31.7057 17.1177 30.472C18.1082 29.3938 18.6274 27.9806 18.5644 26.5341C18.586 25.5663 18.3673 24.6078 17.9268 23.7403C17.4863 22.8729 16.8372 22.1223 16.0349 21.5526C15.043 20.809 13.3364 19.9893 10.9281 19.0978L8.27732 18.1767C7.07413 17.7282 5.92401 17.1545 4.84686 16.4655C1.9838 14.6402 0.567413 12.2023 0.567413 9.15172C0.567413 6.46028 1.48133 4.2463 3.30919 2.53511C5.13704 0.823909 7.34607 0 10.0922 0C11.3681 0.0404519 12.6307 0.265437 13.8388 0.667585L13.8345 0.705597Z" fill="#EA0429"/>
</svg>
