<svg id="Layer_1" data-name="Layer 1" xmlns="http://www.w3.org/2000/svg" viewBox="0 0 86.15 36.16"><defs><style>.cls-1{fill:#e91d2c;fill-rule:evenodd;}</style></defs><path class="cls-1" d="M85.69.81H64.54a.55.55,0,0,0-.18,0,.34.34,0,0,0-.16.1.31.31,0,0,0-.1.15.37.37,0,0,0,0,.18v.32c0,.27.16.39.46.39,2.06,0,3.08.94,3.08,2.76V31.54a2.84,2.84,0,0,1-.66,2.2,3.84,3.84,0,0,1-2.42.56c-.29,0-.46.12-.46.36v.55a.36.36,0,0,0,0,.18.34.34,0,0,0,.1.16.44.44,0,0,0,.16.1.37.37,0,0,0,.18,0H85.69a.37.37,0,0,0,.18,0,.51.51,0,0,0,.16-.09.54.54,0,0,0,.1-.16.36.36,0,0,0,0-.18v-.55c0-.24-.16-.36-.46-.36a4.08,4.08,0,0,1-2.37-.56,2.87,2.87,0,0,1-.71-2.2V4.72c0-1.19.24-2,.71-2.29A4,4,0,0,1,85.69,2c.31,0,.46-.13.46-.39V1.27a.36.36,0,0,0,0-.18A.54.54,0,0,0,86,.93a.51.51,0,0,0-.16-.09.37.37,0,0,0-.18,0ZM55.7,2l.08-.51c0-.39-.16-.6-.5-.6H46.09c-.41,0-.6.21-.6.65s.22.67.63.67h1.1c.89,0,1.35.28,1.35.86a1.33,1.33,0,0,1-.33.8,31.9,31.9,0,0,1-2.35,2.84L35.23,18.2c-.54.53-.81.45-.81-.23V4.42c0-1.55.92-2.34,2.76-2.34L37.86,2c.13-.08.18-.27.18-.59S37.86.84,37.5.84H26.77c-.55,0-.81.24-.81.68a.49.49,0,0,0,0,.27.51.51,0,0,0,.15.23.49.49,0,0,0,.24.14.65.65,0,0,0,.28,0c1.91,0,2.88.73,2.88,2.25V32c0,1.5-1,2.24-2.88,2.24-.47,0-.7.21-.7.63l.13.61.68.11H37.51a.54.54,0,0,0,.22,0,.5.5,0,0,0,.19-.13.59.59,0,0,0,.11-.19.55.55,0,0,0,0-.22c0-.32,0-.52-.18-.6l-.68-.08c-1.84,0-2.76-.76-2.76-2.32V22.74c0-.87.13-1.4.4-1.64l2.46-2.63a.63.63,0,0,1,.23-.2.56.56,0,0,1,.31-.06.49.49,0,0,1,.29.11.59.59,0,0,1,.2.24l8.91,13.37A2.43,2.43,0,0,1,47.56,33a1,1,0,0,1-.13.59A1.06,1.06,0,0,1,47,34l-1.64.2c-.46,0-.65.24-.65.7s.24.65.7.65h12c.29,0,.46-.21.46-.65s-.21-.71-.65-.71a5,5,0,0,1-4.35-2.36L41.68,15a1.37,1.37,0,0,1-.31-.79l.46-.68L50.68,4a6.55,6.55,0,0,1,4.48-2L55.7,2ZM49.8,19H62.24a.37.37,0,0,0,.18,0,.44.44,0,0,0,.16-.1.36.36,0,0,0,.1-.15.4.4,0,0,0,0-.19V18a.37.37,0,0,0,0-.18.39.39,0,0,0-.1-.16.42.42,0,0,0-.16-.09.37.37,0,0,0-.18,0H49.8c-.29,0-.42.16-.42.45v.59c0,.28.13.45.42.45Zm28-15.06V32.59a2,2,0,0,1-.14.73,1.82,1.82,0,0,1-.43.62,1.85,1.85,0,0,1-.63.41,1.76,1.76,0,0,1-.75.14H74.42A2,2,0,0,1,73,33.94a1.79,1.79,0,0,1-.45-.61,1.69,1.69,0,0,1-.15-.74V3.9a2,2,0,0,1,.15-.76A2.06,2.06,0,0,1,73,2.5a1.76,1.76,0,0,1,.65-.41A1.8,1.8,0,0,1,74.42,2h1.46a1.94,1.94,0,0,1,1.38.55A2,2,0,0,1,77.83,3.9ZM14.71.75a15.41,15.41,0,0,1,2.77,1.11c1.89,1.07,3.19.89,3.87-.59a.7.7,0,0,1,.26-.33A.73.73,0,0,1,22,.82c.51,0,.76.2.76.63v8.9c0,.4-.25.61-.7.61l-.57-.08a.62.62,0,0,1-.24-.41,10,10,0,0,0-4.2-6.79,10.06,10.06,0,0,0-5.8-1.86,6.54,6.54,0,0,0-5.11,2A6.12,6.12,0,0,0,4.65,8a5.28,5.28,0,0,0,.56,2.43,5.45,5.45,0,0,0,1.6,1.94,23,23,0,0,0,5.89,2.9,35.76,35.76,0,0,1,8.7,4.08A8.67,8.67,0,0,1,24,22.48a8.5,8.5,0,0,1,.85,4,9,9,0,0,1-2.83,7,11.71,11.71,0,0,1-8.13,2.72A25.06,25.06,0,0,1,5,34.2a4.23,4.23,0,0,0-2-.39,2.13,2.13,0,0,0-1.48,1.26l-.27.45-.52,0c-.46,0-.7-.19-.7-.52V25.16c0-.31.24-.48.73-.48s.65.17.7.51A12,12,0,0,0,4.54,31a10.56,10.56,0,0,0,3.68,2.54,10.83,10.83,0,0,0,4.43.82,7.41,7.41,0,0,0,5.56-2,5.87,5.87,0,0,0,1.54-4.19,6.26,6.26,0,0,0-.68-3,6.46,6.46,0,0,0-2-2.33,23.08,23.08,0,0,0-5.43-2.61l-2.82-1a18.56,18.56,0,0,1-3.65-1.82A8.85,8.85,0,0,1,.6,9.73a9.22,9.22,0,0,1,2.92-7A10,10,0,0,1,10.73,0a13.89,13.89,0,0,1,4,.71Z"/></svg>