<?xml version="1.0" encoding="utf-8"?>
<!-- Generator: Adobe Illustrator 26.3.1, SVG Export Plug-In . SVG Version: 6.00 Build 0)  -->
<svg version="1.1" id="Layer_1" xmlns="http://www.w3.org/2000/svg" xmlns:xlink="http://www.w3.org/1999/xlink" x="0px" y="0px"
	 viewBox="0 0 268 296" style="enable-background:new 0 0 268 296;" xml:space="preserve">
<style type="text/css">
	.st0{fill-rule:evenodd;clip-rule:evenodd;fill:#EA0429;}
	.st1{fill:#231F20;}
</style>
<path class="st0" d="M168,0.8h-21.1c-0.1,0-0.1,0-0.2,0c-0.1,0-0.1,0.1-0.2,0.1c0,0-0.1,0.1-0.1,0.2c0,0.1,0,0.1,0,0.2v0.3
	c0,0.3,0.2,0.4,0.5,0.4c2.1,0,3.1,0.9,3.1,2.8v26.8c0,1.1-0.2,1.8-0.7,2.2c-0.5,0.4-1.2,0.5-2.4,0.6c-0.3,0-0.5,0.1-0.5,0.4v0.6
	c0,0.1,0,0.1,0,0.2c0,0.1,0.1,0.1,0.1,0.2c0,0,0.1,0.1,0.2,0.1c0.1,0,0.1,0,0.2,0H168c0.1,0,0.1,0,0.2,0c0.1,0,0.1-0.1,0.2-0.1
	c0,0,0.1-0.1,0.1-0.2c0-0.1,0-0.1,0-0.2v-0.6c0-0.2-0.2-0.4-0.5-0.4c-1.2,0-2-0.2-2.4-0.6c-0.4-0.3-0.7-1.1-0.7-2.2V4.7
	c0-1.2,0.2-2,0.7-2.3c0.3-0.3,1.1-0.4,2.4-0.4c0.3,0,0.5-0.1,0.5-0.4V1.3c0-0.1,0-0.1,0-0.2c0-0.1-0.1-0.1-0.1-0.2
	c0,0-0.1-0.1-0.2-0.1C168.1,0.8,168,0.8,168,0.8L168,0.8z M138,2l0.1-0.5c0-0.4-0.2-0.6-0.5-0.6h-9.2c-0.4,0-0.6,0.2-0.6,0.6
	c0,0.4,0.2,0.7,0.6,0.7h1.1c0.9,0,1.3,0.3,1.3,0.9c0,0.3-0.1,0.6-0.3,0.8c-0.7,1-1.5,1.9-2.3,2.8l-10.7,11.5
	c-0.5,0.5-0.8,0.4-0.8-0.2V4.4c0-1.6,0.9-2.3,2.8-2.3l0.7-0.1c0.1-0.1,0.2-0.3,0.2-0.6c0-0.4-0.2-0.6-0.5-0.6H109
	c-0.5,0-0.8,0.2-0.8,0.7c0,0.1,0,0.2,0,0.3c0,0.1,0.1,0.2,0.2,0.2c0.1,0.1,0.2,0.1,0.2,0.1c0.1,0,0.2,0,0.3,0c1.9,0,2.9,0.7,2.9,2.2
	V32c0,1.5-1,2.2-2.9,2.2c-0.5,0-0.7,0.2-0.7,0.6l0.1,0.6l0.7,0.1h10.7c0.1,0,0.2,0,0.2,0c0.1,0,0.1-0.1,0.2-0.1
	c0.1-0.1,0.1-0.1,0.1-0.2c0-0.1,0-0.1,0-0.2c0-0.3,0-0.5-0.2-0.6l-0.7-0.1c-1.8,0-2.8-0.8-2.8-2.3v-9.3c0-0.9,0.1-1.4,0.4-1.6
	l2.5-2.6c0.1-0.1,0.1-0.2,0.2-0.2s0.2-0.1,0.3-0.1s0.2,0,0.3,0.1c0.1,0.1,0.2,0.1,0.2,0.2l8.9,13.4c0.2,0.3,0.3,0.7,0.3,1.1
	c0,0.2,0,0.4-0.1,0.6c-0.1,0.2-0.3,0.3-0.5,0.4l-1.6,0.2c-0.5,0-0.7,0.2-0.7,0.7c0,0.5,0.2,0.7,0.7,0.7h12c0.3,0,0.5-0.2,0.5-0.7
	s-0.2-0.7-0.6-0.7c-2-0.1-3.4-0.9-4.3-2.4L124,15c-0.2-0.2-0.3-0.5-0.3-0.8l0.5-0.7L133,4c1.2-1.2,2.8-1.9,4.5-2L138,2L138,2z
	 M132.1,19h12.4c0.1,0,0.1,0,0.2,0c0.1,0,0.1-0.1,0.2-0.1c0,0,0.1-0.1,0.1-0.2c0-0.1,0-0.1,0-0.2v-0.6c0-0.1,0-0.1,0-0.2
	c0-0.1-0.1-0.1-0.1-0.2c0,0-0.1-0.1-0.2-0.1c-0.1,0-0.1,0-0.2,0h-12.4c-0.3,0-0.4,0.2-0.4,0.4v0.6C131.7,18.8,131.8,19,132.1,19
	L132.1,19z M160.1,3.9v28.7c0,0.3,0,0.5-0.1,0.7c-0.1,0.2-0.2,0.4-0.4,0.6c-0.2,0.2-0.4,0.3-0.6,0.4c-0.2,0.1-0.5,0.1-0.7,0.1h-1.5
	c-0.5,0-1-0.2-1.4-0.6c-0.2-0.2-0.3-0.4-0.5-0.6c-0.1-0.2-0.2-0.5-0.1-0.7V3.9c0-0.3,0.1-0.5,0.2-0.8c0.1-0.2,0.3-0.5,0.4-0.6
	c0.2-0.2,0.4-0.3,0.6-0.4c0.2-0.1,0.5-0.1,0.8-0.1h1.5c0.3,0,0.5,0,0.8,0.1c0.2,0.1,0.5,0.2,0.6,0.4C159.9,2.9,160.1,3.4,160.1,3.9z
	 M97,0.8c1,0.3,1.9,0.7,2.8,1.1c1.9,1.1,3.2,0.9,3.9-0.6c0-0.1,0.1-0.3,0.3-0.3c0.1-0.1,0.3-0.1,0.4-0.1c0.5,0,0.8,0.2,0.8,0.6v8.9
	c0,0.4-0.2,0.6-0.7,0.6l-0.6-0.1c-0.1-0.1-0.2-0.3-0.2-0.4c-0.5-2.9-1.9-5.2-4.2-6.8c-1.7-1.2-3.7-1.9-5.8-1.9c-2.2,0-3.9,0.7-5.1,2
	c-1,1.2-1.6,2.7-1.5,4.2c0,0.8,0.2,1.7,0.6,2.4c0.4,0.8,0.9,1.4,1.6,1.9c1.1,0.9,3.1,1.9,5.9,2.9c4.2,1.5,7.1,2.9,8.7,4.1
	c1.1,0.8,2,1.9,2.6,3.1c0.6,1.2,0.9,2.6,0.9,4c0,2.9-0.9,5.2-2.8,7c-1.9,1.8-4.7,2.7-8.1,2.7c-2.6,0-5.6-0.7-8.9-2
	c-0.6-0.3-1.3-0.4-2-0.4c-0.6,0.1-1.1,0.5-1.5,1.3l-0.3,0.4l-0.5,0c-0.5,0-0.7-0.2-0.7-0.5v-9.9c0-0.3,0.2-0.5,0.7-0.5
	c0.4,0,0.6,0.2,0.7,0.5c0.5,2.2,1.5,4.2,3.1,5.8c1,1.1,2.3,2,3.7,2.5c1.4,0.6,2.9,0.9,4.4,0.8c2.4,0,4.3-0.7,5.6-2
	c1.1-1.1,1.6-2.6,1.5-4.2c0-1-0.2-2-0.7-3c-0.5-0.9-1.2-1.7-2-2.3c-1.1-0.8-2.9-1.7-5.4-2.6l-2.8-1c-1.3-0.5-2.5-1.1-3.6-1.8
	c-3-1.9-4.6-4.5-4.6-7.8c0-2.9,1-5.2,2.9-7C87.7,0.9,90.1,0,93,0C94.4,0,95.7,0.3,97,0.8L97,0.8z"/>
<path class="st1" d="M240,144.1c-0.4,0-0.8,0-1.2-0.1l-0.6,4.4h0.1c1.1-1.8,1.9-3.5,3.7-3.5h1v10.6c0,1.3-0.4,1.6-1.3,2.1v0.1h5.7
	v-0.1c-0.4-0.1-0.8-0.4-1-0.8c-0.2-0.4-0.3-0.9-0.3-1.3v-10.6h1c1.8,0,2.6,1.7,3.7,3.5h0.1l-0.6-4.4c-0.4,0.1-0.7,0.1-1.1,0.1H240z
	 M259.8,152.6l-3.2-8.5H252v0.1c0.4,0.2,0.7,0.5,1,0.9c0.2,0.4,0.3,0.8,0.2,1.3v9.1c0.1,0.4,0,0.9-0.2,1.2c-0.2,0.4-0.6,0.7-1,0.8
	v0.1h3.3v-0.1c-0.9-0.6-1.2-0.7-1.2-2v-9.5l4.5,11.9h0.1l4.5-11.9v9.5c0,1.3-0.2,1.5-1.1,2v0.1h5.3v-0.1c-0.9-0.6-1.2-0.7-1.2-2
	v-9.2c0-1.3,0.2-1.4,1.2-2.1V144h-4.4L259.8,152.6z"/>
<path class="st1" d="M74.1,122h0.2L89,76.9c1.6-5,3.6-8.1,6.4-9.8v-0.2H83.3v0.2c1.2,0.5,2.2,1.4,2.9,2.5c0.7,1.1,1,2.4,1,3.7
	c0,1.3-0.3,2.6-0.7,3.9l-9.1,28.4l-8.5-29.8c-0.5-1.5-0.8-3-0.9-4.5c0-1.9,1-3.3,3.1-4.2v-0.2H54.4v0.2c2.7,1.7,3.7,3.6,5.3,8.5
	l2.2,7.3l-7.1,22.5L45,75.9c-0.5-1.5-0.8-3-0.9-4.6c0-1.9,1-3.2,3-4.2v-0.2H30.3v0.2c2.7,1.7,3.6,3.6,5.3,8.5l15.8,46.3h0.2L63,86.3
	L74.1,122z M108.7,122c9.8,0,17.2-8.2,17.2-19.8c0-11.5-7.3-19.7-17.2-19.7c-9.8,0-17.2,8.2-17.2,19.7
	C91.5,113.7,98.8,122,108.7,122z M108.7,120.5c-5.4,0-7.9-7.7-7.9-18.3c0-10.6,2.5-18.2,7.9-18.2c5.4,0,7.8,7.6,7.8,18.2
	C116.5,112.8,114,120.5,108.7,120.5z M150.7,94.9c0.3,0.3,0.7,0.6,1.2,0.7s0.9,0.2,1.4,0.2c3.1,0,5.9-2.4,5.9-6.7
	c0-3.9-2.9-6.5-7-6.5c-5.6,0-8.9,5.7-10.5,12V83.3H129v0.2c3.2,1.6,4.1,3.4,4.1,8.3V113c0,5.1-0.5,6.4-3.7,8v0.2h17.5V121
	c-3.6-1.6-5.3-2.7-5.3-7.8v-12c0-7.7,3.5-13.2,7.4-13.2c2.6,0,3.9,1.4,3.9,3.5c0,0.7-0.2,1.5-0.6,2.1
	C151.9,94.2,151.3,94.7,150.7,94.9z M172.6,63.2h-12.7v0.2c3.2,1.6,4.2,3.4,4.2,8.3V113c0,5.1-0.5,6.4-3.7,8v0.2h16V121
	c-3.2-1.6-3.7-2.9-3.7-8V63.2z M197.1,118.3c-5.3,0-8.3-6.1-8.3-15.9c0-10.1,3-16.6,8.3-16.6c4.2,0,8.5,4.6,8.5,12.7v7.5
	C205.6,113.9,201.2,118.3,197.1,118.3z M205.6,92.2c-1.4-5.8-5.4-9.6-11.4-9.6c-8,0-14.8,7.7-14.8,19.9c0,12.2,6.6,19.5,14.5,19.5
	c6,0,10.3-4.1,11.7-10.1v9.3H218v-0.2c-3.2-1.6-3.8-3.5-3.8-8.3V63.2h-12.8v0.2c3.3,1.6,4.2,3.4,4.2,8.3V92.2z M21.1,176.8
	c11.4,0,19.6-5.4,19.6-15.9c0-10.5-8.3-16-19.6-16H0v0.2c3.6,1.7,4.2,4.2,4.2,9.3v35.3c0,5.1-0.6,7.6-4.2,9.3v0.2h19.1V199
	c-5-2-5.8-4-5.8-8.9v-13.3H21.1z M13.3,174.9v-28h5.6c8.7,0,12.6,5.7,12.6,14c0,8.3-3.9,13.9-12.6,13.9H13.3z M57.2,189.7v-35.3
	c0-5.1,0.7-7.6,4.2-9.3V145H44v0.2c3.6,1.7,4.2,4.2,4.2,9.3v35.3c0,5.1-0.6,7.6-4.2,9.3v0.2h17.4V199
	C57.9,197.3,57.2,194.9,57.2,189.7L57.2,189.7z M70.6,145c-1.4,0.1-2.8-0.1-4.2-0.6l-1.8,17h0.2c4.7-9.9,7.4-14.6,15.8-14.6h3.2
	v43.4c0,5.1-1.1,7.1-4.7,8.8v0.2h18.4V199c-3.7-1.7-4.7-3.7-4.7-8.8v-43.4h3.2c8.3,0,11,4.6,15.8,14.6h0.2l-1.9-17
	c-1.3,0.5-2.8,0.7-4.2,0.6H70.6z M114.8,145v0.2c3.6,1.7,4.2,4.2,4.2,9.3v35.3c0,5.1-0.6,7.6-4.2,9.3v0.2h36.9l2.1-14.6h-0.2
	c-4,8.3-8.6,12.8-17.6,12.8h-8v-24.9h5.4c6.2,0,8.3,0.6,10.9,7.7h0.2v-18.3h-0.2c-2.6,7.2-4.6,8.7-10.9,8.7h-5.4v-23.7h6.9
	c9,0,13,3.9,17,11.4h0.2l-2.2-13.9c-1.4,0.5-2.8,0.7-4.2,0.6L114.8,145z M171,146.9h5.7c7.9,0,12.3,4.3,12.3,12.5
	c0,8.9-5,12.4-12.3,12.4H171L171,146.9z M157.8,145v0.2c3.6,1.7,4.2,4.2,4.2,9.3v35.3c0,5.1-0.6,7.6-4.2,9.3v0.2h17.4V199
	c-3.6-1.7-4.2-4.2-4.2-9.3v-16h4.8c6.3,0,8.5,4,9.8,9.4l1.9,7.7c0.9,3.6,2.2,6.7,3.7,8.3h13.6V199c-4.6-1.9-6.6-3.9-8-9.5l-1.7-6.4
	c-1.6-5.9-5.8-9.5-13.4-10.1c8.5-0.3,17.1-4.3,17.1-13.8c0-10.5-8.8-14.3-19.7-14.3L157.8,145z M224,158.5l8.2,21H216L224,158.5z
	 M215.5,199c-1.2-0.5-2.2-1.3-2.8-2.3c-0.7-1-1-2.3-1-3.5c0-1.6,0.4-3.1,1-4.6l2.6-7.1h17.7l3.4,8.7c0.6,1.4,1,2.9,1.1,4.5
	c0,1.9-1.1,3.3-3.2,4.3v0.2h17.6V199c-2.9-1.7-3.8-3.5-5.8-8.5l-18.3-46.3h-0.2l-17.4,44.8c-2,5.1-3.7,8.3-6.8,10v0.2h12.2V199z
	 M67,277.2h18.3c14.5,0,27.1-8.8,27.1-27.6c0-17.7-12.2-26.6-28.5-26.6H67v0.2c3.6,1.7,4.2,4.2,4.2,9.3v35.3c0,5.1-0.6,7.6-4.2,9.3
	L67,277.2z M80.2,275.3v-50.4h3.3c11.4,0,19.1,8.5,19.1,24.6c0,18.3-7.8,25.7-18.2,25.7L80.2,275.3z M151.1,274.1
	c-0.6,0.4-1.3,0.6-2.1,0.6c-2.6,0-3.9-1.8-3.9-5.5c0-5.3,0.2-11.5,0.2-18.4c0-8.8-5.4-12.2-14.7-12.2c-7.4,0-12.9,3.9-12.9,9.2
	c-0.1,0.8,0.1,1.6,0.3,2.3c0.3,0.7,0.7,1.4,1.3,2c0.6,0.6,1.2,1,2,1.3c0.7,0.3,1.5,0.4,2.3,0.3c1.2,0.1,2.4-0.2,3.3-0.9
	c1-0.7,1.7-1.7,2-2.8c-0.3,0.1-0.7,0.2-1.1,0.2c-2.2,0-3.5-1.7-3.5-4.5c-0.1-0.8,0-1.5,0.3-2.3c0.3-0.7,0.7-1.4,1.2-1.9
	c0.5-0.5,1.2-1,1.9-1.2c0.7-0.3,1.5-0.4,2.2-0.3c4.4,0,6.4,3.5,6.4,7.8v7.4l-4.6,1c-8,1.9-15.9,4.1-15.9,12.2c0,6.2,4.5,9.3,9.8,9.3
	c2.6,0.1,5.1-0.8,7-2.4c2-1.6,3.3-3.9,3.8-6.5c0,0.4,0.2,2.2,0.2,2.4c0.5,4.1,2.9,6.6,7.2,6.6c1.4,0.1,2.8-0.2,4-0.9
	c1.2-0.6,2.3-1.6,3.1-2.8L151.1,274.1z M136.5,256.8l-0.1,7.6c-0.2,5.9-3.2,9.1-6.8,9.1c-3.1,0-5.1-2.2-5.1-6.4c0-5.5,3.2-8,8.7-9.5
	L136.5,256.8z M164.4,284.3c-1.8,4.6-3.3,6.7-5.9,6.7c-0.4,0-0.9-0.1-1.3-0.2c-0.4-0.2-0.8-0.4-1.1-0.7c-0.3-0.3-0.5-0.7-0.7-1.1
	c-0.1-0.4-0.2-0.9-0.2-1.3c-0.1-0.7,0.1-1.5,0.5-2.1s0.9-1.1,1.6-1.4c-0.7-0.5-1.6-0.7-2.5-0.6c-0.7,0-1.5,0.1-2.1,0.4
	c-0.7,0.3-1.3,0.7-1.8,1.2c-0.5,0.5-0.9,1.1-1.2,1.8c-0.3,0.7-0.4,1.4-0.4,2.1c0,3.9,3,6.3,6.7,6.3c5.1,0,7.7-4,10-10.1l13.7-37.1
	c2-5.4,3-6.8,5.6-8.7v-0.2H175v0.2c1,0.3,1.9,0.9,2.5,1.8c0.6,0.9,0.9,1.9,0.9,3c0,1.4-0.3,2.7-0.8,4l-7,19.3l-7.8-19.8
	c-0.7-1.4-1.1-2.9-1.2-4.5c0-0.8,0.2-1.6,0.6-2.2c0.4-0.7,1.1-1.2,1.8-1.4v-0.2h-15.4v0.2c2.4,2,3.1,2.9,5.3,8.2l12.7,30.5
	L164.4,284.3z"/>
</svg>
