<svg id="Layer_1" data-name="Layer 1" xmlns="http://www.w3.org/2000/svg" viewBox="0 0 265.74 230.64">
  <defs>
    <style>
      .cls-1 {
        fill: #231f20;
      }
    </style>
  </defs>
  <path class="cls-1" d="M238.4,80.38a4.2,4.2,0,0,1-1.17-.13l-.58,4.34h.1c1.09-1.76,1.88-3.47,3.71-3.47h1V91.61a1.92,1.92,0,0,1-1.3,2.1v.1h5.68v-.1a1.87,1.87,0,0,1-1.05-.8,1.91,1.91,0,0,1-.26-1.3V81.12h1c1.83,0,2.62,1.71,3.71,3.47h.13l-.61-4.34a3.66,3.66,0,0,1-1.09.13Zm19.74,8.42L255,80.38H250.4v.09a2.06,2.06,0,0,1,.95.87,2.1,2.1,0,0,1,.23,1.28v9a1.82,1.82,0,0,1-.23,1.23,1.76,1.76,0,0,1-.95.79v.1h3.29v-.1c-.91-.56-1.17-.74-1.17-2V82.18L256.94,94H257l4.47-11.79v9.43c0,1.28-.18,1.46-1.05,2v.1h5.3v-.1c-.92-.56-1.18-.74-1.18-2V82.49c0-1.27.22-1.44,1.18-2.06v-.09h-4.38Z"/>
  <path class="cls-1" d="M73.58,58.4h.23L88.39,13.59c1.61-5,3.53-8.08,6.38-9.7V3.73H82.71v.16a6.52,6.52,0,0,1,2.87,2.53,6.61,6.61,0,0,1,1,3.7A12.52,12.52,0,0,1,85.86,14l-9,28.25L68.36,12.6a17.08,17.08,0,0,1-.91-4.47c0-1.93,1-3.24,3.07-4.23V3.74H54.05V3.9c2.68,1.69,3.68,3.54,5.29,8.46l2.23,7.24L54.51,41.92,44.74,12.6a17.71,17.71,0,0,1-.93-4.54c0-1.86,1-3.17,3-4.16V3.74H30.08V3.9c2.68,1.69,3.6,3.54,5.3,8.46l15.72,46h.23L62.61,23Zm34.42,0c9.75,0,17-8.16,17-19.62s-7.29-19.54-17-19.54S90.88,27.39,90.88,38.78,98.18,58.4,108,58.4Zm0-1.46c-5.37,0-7.82-7.62-7.82-18.16S102.63,20.7,108,20.7s7.75,7.53,7.75,18.08S113.3,56.94,108,56.94Zm41.68-25.39a3.19,3.19,0,0,0,1.18.69,3.29,3.29,0,0,0,1.36.16c3.06,0,5.88-2.36,5.88-6.63,0-3.85-2.85-6.46-6.92-6.46-5.6,0-8.89,5.62-10.43,11.93V20H128.16v.16c3.23,1.61,4.07,3.38,4.07,8.25V49.49c0,5.08-.54,6.31-3.68,7.94v.15H146v-.15c-3.61-1.55-5.22-2.71-5.22-7.78V37.78c0-7.62,3.46-13.08,7.36-13.08,2.54,0,3.85,1.39,3.85,3.46a3.58,3.58,0,0,1-.61,2.06A3.52,3.52,0,0,1,149.68,31.55ZM171.49,0H158.84V.15C162,1.77,163,3.54,163,8.41V49.5c0,5.08-.55,6.31-3.68,7.94v.15h15.88v-.15c-3.15-1.63-3.69-2.86-3.69-7.94Zm24.34,54.78c-5.3,0-8.29-6.07-8.29-15.77,0-10.08,3-16.51,8.29-16.51,4.14,0,8.44,4.54,8.44,12.62v7.47C204.27,50.4,199.89,54.78,195.83,54.78Zm8.44-25.94c-1.38-5.77-5.37-9.55-11.28-9.55-8,0-14.73,7.69-14.73,19.78s6.6,19.39,14.42,19.39c6,0,10.21-4.08,11.59-10V57.7h12.28v-.16c-3.15-1.62-3.76-3.46-3.76-8.25V0H200.05V.15c3.23,1.62,4.22,3.39,4.22,8.26ZM21,112.84c11.29,0,19.49-5.37,19.49-15.76S32.21,81.22,21,81.22H0v.16c3.61,1.68,4.22,4.15,4.22,9.23V125.7c0,5.08-.61,7.54-4.22,9.23v.16H19v-.16c-5-2-5.75-4-5.75-8.84V112.84ZM13.17,111V83.19h5.52c8.68,0,12.51,5.7,12.51,13.93S27.37,111,18.69,111Zm43.61,14.78V90.66c0-5.08.68-7.55,4.22-9.23v-.16H43.75v.16c3.53,1.68,4.14,4.15,4.14,9.23v35.09c0,5.08-.61,7.53-4.14,9.23v.16H61V135c-3.54-1.7-4.23-4.15-4.23-9.23ZM70.15,81.27A9.15,9.15,0,0,1,66,80.66L64.2,97.51h.15C69.06,87.65,71.72,83,80,83h3.14v43.17c0,5.08-1.07,7.07-4.71,8.77v.16H96.71V135C93,133.28,92,131.29,92,126.21V83h3.15c8.24,0,10.89,4.61,15.66,14.47H111L109,80.66a8.91,8.91,0,0,1-4.15.61Zm43.94,0v.16c3.53,1.68,4.15,4.15,4.15,9.23v35.09c0,5.08-.62,7.53-4.15,9.23v.16h36.68l2.08-14.55h-.16c-4,8.26-8.59,12.69-17.49,12.69h-7.95V108.52h5.37c6.21,0,8.23.61,10.82,7.69h.15V98h-.15c-2.54,7.16-4.61,8.62-10.82,8.62h-5.37V83.08h6.9c8.9,0,12.94,3.85,16.88,11.32h.16L149,80.62a9.36,9.36,0,0,1-4.22.62Zm55.75,1.92h5.63c7.82,0,12.19,4.24,12.19,12.47,0,8.85-5,12.31-12.19,12.31h-5.61Zm-13.11-1.92v.16c3.53,1.68,4.14,4.15,4.14,9.23v35.09c0,5.08-.61,7.53-4.14,9.23v.16h17.34V135c-3.53-1.7-4.23-4.15-4.23-9.23V109.9h4.77c6.29,0,8.43,4,9.73,9.3l1.85,7.62c.92,3.62,2.15,6.7,3.68,8.26h13.47v-.16c-4.61-1.85-6.53-3.84-8-9.43l-1.68-6.31c-1.54-5.9-5.76-9.44-13.35-10,8.43-.31,17-4.24,17-13.7,0-10.46-8.75-14.23-19.57-14.23Zm65.78,13.47,8.12,20.85h-16ZM214.06,135a6,6,0,0,1-3.83-5.77,11.89,11.89,0,0,1,1-4.54l2.61-7h17.57l3.38,8.62a15.22,15.22,0,0,1,1.07,4.46c0,1.92-1.07,3.23-3.23,4.23v.16h17.5V135c-2.91-1.7-3.76-3.47-5.76-8.47l-18.18-46H226l-17.26,44.54c-2,5.09-3.68,8.26-6.75,9.93v.16h12.12ZM66.59,212.63H84.78c14.42,0,26.93-8.76,26.93-27.46,0-17.54-12.12-26.4-28.32-26.4H66.54v.15c3.53,1.7,4.15,4.17,4.15,9.24v35.09c0,5.08-.62,7.54-4.15,9.23Zm13.08-1.9v-50H83c11.28,0,19,8.4,19,24.48,0,18.16-7.75,25.54-18.12,25.54Zm70.42-1.17a3.56,3.56,0,0,1-2.07.61c-2.61,0-3.84-1.77-3.84-5.46,0-5.24.16-11.4.16-18.25,0-8.76-5.38-12.15-14.59-12.15-7.36,0-12.82,3.85-12.82,9.16a5.55,5.55,0,0,0,.34,2.32,5.4,5.4,0,0,0,1.26,2,5.56,5.56,0,0,0,2,1.27,5.37,5.37,0,0,0,2.31.33,5.08,5.08,0,0,0,3.32-.88,5.15,5.15,0,0,0,2-2.81,2.67,2.67,0,0,1-1.07.23c-2.16,0-3.46-1.69-3.46-4.46a5.32,5.32,0,0,1,.31-2.24,5.15,5.15,0,0,1,1.23-1.89,5.23,5.23,0,0,1,1.9-1.21,5.33,5.33,0,0,1,2.24-.28c4.37,0,6.36,3.46,6.36,7.78V191l-4.6,1c-8,1.84-15.8,4.07-15.8,12.08,0,6.16,4.44,9.23,9.75,9.23a10.64,10.64,0,0,0,10.73-8.84c0,.38.16,2.23.16,2.36.46,4.08,2.91,6.54,7.13,6.54a8,8,0,0,0,7.06-3.62Zm-14.43-17.17-.07,7.54c-.16,5.9-3.16,9-6.75,9-3.07,0-5.07-2.16-5.07-6.39,0-5.46,3.15-8,8.59-9.44Zm27.69,27.25c-1.83,4.61-3.29,6.69-5.88,6.69a3.17,3.17,0,0,1-2.36-1,3.29,3.29,0,0,1-.69-1.11,4.89,4.89,0,0,1,.3-3.37,3.31,3.31,0,0,1,1.6-1.38,3.89,3.89,0,0,0-2.46-.63,5.66,5.66,0,0,0-2.11.41,5.31,5.31,0,0,0-1.78,1.21,5.36,5.36,0,0,0-1.55,3.94c0,3.91,3,6.22,6.68,6.22,5.05,0,7.66-3.92,10-10l13.65-36.85c2-5.32,3-6.77,5.53-8.63V175H173.89v.15a4.74,4.74,0,0,1,2.5,1.78,4.67,4.67,0,0,1,.87,2.94,11,11,0,0,1-.76,3.93l-6.91,19.13-7.75-19.7a13.21,13.21,0,0,1-1.18-4.46,3.7,3.7,0,0,1,.63-2.21,3.61,3.61,0,0,1,1.83-1.41V175H147.78v.15c2.35,2,3.07,2.93,5.22,8.15l12.66,30.33Z"/>
</svg>
